<?xml version="1.0" encoding="UTF-8" standalone="no"?>
<svg
   xmlns:dc="http://purl.org/dc/elements/1.1/"
   xmlns:cc="http://creativecommons.org/ns#"
   xmlns:rdf="http://www.w3.org/1999/02/22-rdf-syntax-ns#"
   xmlns:svg="http://www.w3.org/2000/svg"
   xmlns="http://www.w3.org/2000/svg"
   viewBox="0 0 866.66669 320"
   height="192.153781979"
   width="520.416506872"
   xml:space="preserve"
   id="svg2"
   version="1.1"><metadata
     id="metadata8"><rdf:RDF><cc:Work
         rdf:about=""><dc:format>image/svg+xml</dc:format><dc:type
           rdf:resource="http://purl.org/dc/dcmitype/StillImage" /></cc:Work></rdf:RDF></metadata><defs
     id="defs6"><clipPath
       id="clipPath18"
       clipPathUnits="userSpaceOnUse"><path
         id="path16"
         d="M 0,240 H 650 V 0 H 0 Z" /></clipPath></defs><g
     transform="matrix(1.3333333,0,0,-1.3333333,0,320)"
     id="g10"><g
       id="g12"><g
         clip-path="url(#clipPath18)"
         id="g14"><g
           transform="translate(170.6162,148.3989)"
           id="g20"><path
             id="path22"
             style="fill:#98002e;fill-opacity:1;fill-rule:nonzero;stroke:none"
             d="m 0,0 c -1.106,0.482 -1.31,0.828 -1.31,2.348 0,3.799 0.271,7.939 0.346,9.045 0.068,1.038 0.272,1.798 0.828,1.798 0.617,0 0.685,-0.624 0.685,-1.174 0,-0.902 0.279,-2.348 0.625,-3.521 1.519,-5.11 5.591,-6.976 9.873,-6.976 6.215,0 9.255,4.213 9.255,7.871 0,3.386 -1.038,6.562 -6.765,11.047 l -3.183,2.483 C 2.762,28.866 0.136,33.697 0.136,39.288 c 0,7.6 6.358,13.056 15.952,13.056 4.493,0 7.39,-0.693 9.188,-1.175 0.618,-0.142 0.963,-0.345 0.963,-0.834 0,-0.896 -0.278,-2.897 -0.278,-8.285 0,-1.52 -0.203,-2.07 -0.76,-2.07 -0.482,0 -0.685,0.414 -0.685,1.242 0,0.624 -0.346,2.762 -1.798,4.56 -1.038,1.309 -3.04,3.379 -7.526,3.379 -5.109,0 -8.217,-2.965 -8.217,-7.111 0,-3.176 1.588,-5.592 7.315,-9.941 l 1.934,-1.452 C 24.584,24.374 27.549,19.61 27.549,13.048 27.549,9.045 26.029,4.282 21.062,1.038 17.608,-1.174 13.741,-1.798 10.083,-1.798 6.08,-1.798 2.972,-1.31 0,0" /></g><g
           transform="translate(223.3003,165.5928)"
           id="g24"><path
             id="path26"
             style="fill:#98002e;fill-opacity:1;fill-rule:nonzero;stroke:none"
             d="m 0,0 c 0.278,0 0.346,0.136 0.278,0.346 l -5.734,14.915 c -0.067,0.203 -0.135,0.549 -0.271,0.549 -0.21,0 -0.278,-0.346 -0.346,-0.549 L -11.943,0.414 C -12.085,0.136 -11.943,0 -11.739,0 Z m -12.981,-3.244 c -0.346,0 -0.414,-0.068 -0.55,-0.413 l -3.25,-7.871 c -0.617,-1.453 -0.895,-2.905 -0.895,-3.59 0,-1.038 0.556,-1.663 2.415,-1.663 h 0.903 c 0.759,0 0.896,-0.278 0.896,-0.617 0,-0.489 -0.347,-0.624 -0.971,-0.624 -2.002,0 -4.831,0.21 -6.765,0.21 -0.618,0 -3.868,-0.21 -7.044,-0.21 -0.759,0 -1.106,0.135 -1.106,0.624 0,0.339 0.211,0.617 0.693,0.617 0.556,0 1.241,0.068 1.798,0.068 2.761,0.414 3.793,2.212 5.041,5.185 l 15.879,36.94 c 0.692,1.655 1.173,2.347 1.798,2.347 0.895,0 1.174,-0.556 1.791,-1.865 1.452,-3.244 11.603,-27.278 15.471,-36.181 2.348,-5.32 4.071,-6.08 5.177,-6.283 0.896,-0.143 1.588,-0.211 2.281,-0.211 0.549,0 0.827,-0.203 0.827,-0.617 0,-0.489 -0.346,-0.624 -2.626,-0.624 -2.137,0 -6.561,0 -11.671,0.135 -1.099,0.075 -1.791,0.075 -1.791,0.489 0,0.339 0.136,0.55 0.76,0.617 0.414,0.068 0.827,0.625 0.549,1.317 L 1.934,-3.657 C 1.798,-3.312 1.587,-3.244 1.31,-3.244 Z" /></g><g
           transform="translate(246.1562,174.9834)"
           id="g28"><path
             id="path30"
             style="fill:#98002e;fill-opacity:1;fill-rule:nonzero;stroke:none"
             d="m 0,0 c 0,8.909 0,10.565 -0.068,12.431 -0.136,2.002 -0.76,2.694 -2.07,3.108 -0.692,0.203 -1.452,0.271 -2.212,0.271 -0.624,0 -0.963,0.143 -0.963,0.692 0,0.346 0.481,0.482 1.445,0.482 2.28,0 6.426,-0.136 8.149,-0.136 1.52,0 5.456,0.136 7.803,0.136 0.761,0 1.243,-0.136 1.243,-0.482 0,-0.549 -0.347,-0.692 -0.964,-0.692 -0.624,0 -1.106,-0.068 -1.798,-0.204 C 8.909,15.328 8.427,14.5 8.285,12.431 8.149,10.565 8.149,8.909 8.149,0 v -10.355 c 0,-5.666 0,-10.361 0.278,-12.845 0.204,-1.588 0.618,-2.484 2.416,-2.762 0.828,-0.135 2.205,-0.21 3.108,-0.21 0.692,0 0.964,-0.346 0.964,-0.618 0,-0.414 -0.482,-0.624 -1.175,-0.624 -4.003,0 -8.149,0.21 -9.804,0.21 -1.378,0 -5.524,-0.21 -7.94,-0.21 -0.76,0 -1.174,0.21 -1.174,0.624 0,0.272 0.204,0.618 0.964,0.618 0.902,0 1.588,0.075 2.144,0.21 1.242,0.278 1.588,1.106 1.792,2.83 C 0,-20.716 0,-16.021 0,-10.355 Z" /></g><g
           transform="translate(273.5703,155.5811)"
           id="g32"><path
             id="path34"
             style="fill:#98002e;fill-opacity:1;fill-rule:nonzero;stroke:none"
             d="m 0,0 c 0.136,-4.56 0.896,-5.937 2.069,-6.352 1.038,-0.346 2.213,-0.414 3.176,-0.414 0.692,0 1.038,-0.278 1.038,-0.624 0,-0.482 -0.556,-0.617 -1.384,-0.617 -3.936,0 -6.765,0.203 -7.871,0.203 -0.55,0 -3.454,-0.203 -6.562,-0.203 -0.828,0 -1.377,0.068 -1.377,0.617 0,0.346 0.413,0.624 0.97,0.624 0.828,0 1.927,0.068 2.762,0.279 1.588,0.414 1.791,2.002 1.859,7.111 l 0.556,34.796 c 0,1.174 0.414,2.009 1.032,2.009 0.76,0 1.587,-0.903 2.626,-1.934 0.76,-0.76 9.873,-10.083 18.714,-18.715 4.14,-4.071 12.221,-12.363 13.117,-13.191 h 0.278 l -0.624,26.104 c -0.068,3.59 -0.618,4.628 -2.07,5.178 -0.895,0.345 -2.348,0.345 -3.176,0.345 -0.759,0 -0.97,0.279 -0.97,0.618 0,0.489 0.625,0.557 1.52,0.557 3.183,0 6.426,-0.136 7.735,-0.136 0.693,0 2.973,0.136 5.938,0.136 0.828,0 1.384,-0.068 1.384,-0.557 0,-0.339 -0.346,-0.618 -1.038,-0.618 -0.618,0 -1.106,0 -1.866,-0.21 -1.656,-0.482 -2.137,-1.52 -2.205,-4.831 L 34.938,-6.833 c 0,-1.317 -0.481,-1.866 -0.963,-1.866 -1.038,0 -1.866,0.617 -2.49,1.241 C 27.685,-3.936 20.092,3.311 13.741,9.458 7.111,15.81 0.692,22.921 -0.482,23.959 h -0.21 z" /></g><g
           transform="translate(333.1582,188.3799)"
           id="g36"><path
             id="path38"
             style="fill:#98002e;fill-opacity:1;fill-rule:nonzero;stroke:none"
             d="m 0,0 -9.045,-0.21 c -3.522,-0.068 -4.974,-0.482 -5.87,-1.792 -0.624,-0.828 -0.896,-1.588 -1.031,-2.001 -0.143,-0.482 -0.279,-0.761 -0.693,-0.761 -0.413,0 -0.556,0.347 -0.556,0.964 0,0.97 1.174,6.63 1.317,7.111 0.135,0.76 0.339,1.106 0.692,1.106 0.481,0 1.099,-0.481 2.619,-0.692 1.798,-0.204 4.071,-0.271 6.073,-0.271 h 24.652 c 1.934,0 3.25,0.135 4.146,0.271 0.97,0.143 1.452,0.278 1.662,0.278 0.407,0 0.482,-0.346 0.482,-1.241 0,-1.242 -0.143,-5.592 -0.143,-7.112 -0.067,-0.624 -0.203,-0.97 -0.549,-0.97 -0.482,0 -0.624,0.278 -0.693,1.174 l -0.067,0.625 c -0.136,1.519 -1.73,3.311 -7.179,3.385 L 8.149,0 v -23.756 c 0,-5.381 0.068,-10.009 0.346,-12.567 0.211,-1.656 0.55,-2.761 2.348,-3.033 0.828,-0.143 2.205,-0.21 3.108,-0.21 0.685,0 0.964,-0.347 0.964,-0.624 0,-0.414 -0.482,-0.618 -1.175,-0.618 -4.003,0 -8.074,0.204 -9.804,0.204 -1.378,0 -5.524,-0.204 -7.94,-0.204 -0.76,0 -1.174,0.204 -1.174,0.618 0,0.277 0.211,0.624 0.97,0.624 0.896,0 1.656,0.067 2.138,0.21 1.242,0.272 1.588,1.377 1.792,3.107 C 0,-33.765 0,-29.137 0,-23.756 Z" /></g><g
           transform="translate(385.1514,199.4966)"
           id="g40"><path
             id="path42"
             style="fill:#98002e;fill-opacity:1;fill-rule:nonzero;stroke:none"
             d="m 0,0 c 0.204,1.174 0.618,1.798 1.174,1.798 0.55,0 0.963,-0.346 1.866,-2.144 L 21.89,-39.288 40.666,0.136 c 0.556,1.106 0.902,1.662 1.526,1.662 0.618,0 1.032,-0.692 1.242,-2.144 l 6.284,-42.675 c 0.617,-4.349 1.309,-6.351 3.379,-6.968 2.002,-0.624 3.386,-0.692 4.281,-0.692 0.625,0 1.106,-0.068 1.106,-0.482 0,-0.556 -0.827,-0.76 -1.791,-0.76 -1.73,0 -11.257,0.204 -14.019,0.414 -1.588,0.136 -2.008,0.346 -2.008,0.76 0,0.346 0.278,0.55 0.767,0.76 0.414,0.136 0.617,1.031 0.339,2.965 l -4.139,30.386 h -0.279 l -15.05,-31.349 c -1.588,-3.251 -1.934,-3.868 -2.558,-3.868 -0.624,0 -1.309,1.377 -2.416,3.454 -1.655,3.175 -7.111,13.741 -7.939,15.674 -0.624,1.446 -4.77,10.151 -7.179,15.329 H 1.934 l -3.597,-27.481 c -0.135,-1.249 -0.203,-2.145 -0.203,-3.251 0,-1.309 0.903,-1.933 2.07,-2.205 1.248,-0.278 2.212,-0.346 2.904,-0.346 0.549,0 1.031,-0.143 1.031,-0.482 0,-0.624 -0.617,-0.76 -1.655,-0.76 -2.898,0 -6.005,0.204 -7.248,0.204 -1.316,0 -4.627,-0.204 -6.839,-0.204 -0.686,0 -1.242,0.136 -1.242,0.76 0,0.339 0.414,0.482 1.106,0.482 0.55,0 1.031,0 2.07,0.203 1.934,0.415 2.49,3.108 2.836,5.456 z" /></g><g
           transform="translate(465.3872,165.5928)"
           id="g44"><path
             id="path46"
             style="fill:#98002e;fill-opacity:1;fill-rule:nonzero;stroke:none"
             d="m 0,0 c 0.278,0 0.346,0.136 0.278,0.346 l -5.734,14.915 c -0.068,0.203 -0.135,0.549 -0.272,0.549 -0.209,0 -0.277,-0.346 -0.345,-0.549 L -11.943,0.414 C -12.085,0.136 -11.943,0 -11.739,0 Z m -12.981,-3.244 c -0.346,0 -0.414,-0.068 -0.557,-0.413 l -3.243,-7.871 c -0.617,-1.453 -0.896,-2.905 -0.896,-3.59 0,-1.038 0.557,-1.663 2.416,-1.663 h 0.896 c 0.76,0 0.902,-0.278 0.902,-0.617 0,-0.489 -0.346,-0.624 -0.97,-0.624 -2.002,0 -4.832,0.21 -6.765,0.21 -0.624,0 -3.868,-0.21 -7.044,-0.21 -0.759,0 -1.106,0.135 -1.106,0.624 0,0.339 0.211,0.617 0.692,0.617 0.55,0 1.242,0.068 1.799,0.068 2.761,0.414 3.793,2.212 5.035,5.185 l 15.885,36.94 c 0.691,1.655 1.173,2.347 1.797,2.347 0.896,0 1.175,-0.556 1.792,-1.865 1.452,-3.244 11.603,-27.278 15.471,-36.181 2.348,-5.32 4.071,-6.08 5.177,-6.283 0.896,-0.143 1.588,-0.211 2.273,-0.211 0.556,0 0.828,-0.203 0.828,-0.617 0,-0.489 -0.339,-0.624 -2.619,-0.624 -2.137,0 -6.562,0 -11.671,0.135 -1.107,0.075 -1.791,0.075 -1.791,0.489 0,0.339 0.135,0.55 0.753,0.617 0.42,0.068 0.834,0.625 0.556,1.317 L 1.934,-3.657 c -0.136,0.345 -0.347,0.413 -0.618,0.413 z" /></g><g
           transform="translate(498.0483,170.4268)"
           id="g48"><path
             id="path50"
             style="fill:#98002e;fill-opacity:1;fill-rule:nonzero;stroke:none"
             d="m 0,0 c 0,-0.624 0.136,-0.828 0.55,-1.038 1.316,-0.414 3.114,-0.55 4.627,-0.55 2.416,0 3.244,0.204 4.289,0.964 1.859,1.316 3.929,3.868 3.929,8.706 0,8.285 -5.66,10.422 -9.249,10.422 -1.52,0 -2.972,-0.067 -3.596,-0.203 C 0.136,18.158 0,17.955 0,17.473 Z m -7.735,4.56 c 0,8.902 0,10.558 -0.068,12.424 -0.136,2.002 -0.686,2.626 -2.619,3.176 -0.489,0.142 -1.52,0.21 -2.423,0.21 -0.617,0 -1.031,0.204 -1.031,0.625 0,0.414 0.481,0.549 1.377,0.549 3.176,0 7.043,-0.135 8.292,-0.135 2.07,0 7.593,0.135 9.459,0.135 3.868,0 8.285,-0.346 11.529,-2.483 1.723,-1.174 4.281,-4.146 4.281,-8.082 0,-4.35 -2.483,-8.217 -8.427,-12.98 5.387,-6.63 9.669,-11.95 13.333,-15.607 3.379,-3.387 5.524,-3.658 6.487,-3.868 0.625,-0.136 0.964,-0.136 1.452,-0.136 0.482,0 0.754,-0.346 0.754,-0.624 0,-0.482 -0.414,-0.618 -1.174,-0.618 h -5.795 c -3.386,0 -5.042,0.346 -6.63,1.174 -2.625,1.31 -4.899,4.072 -8.285,8.632 -2.415,3.175 -4.974,7.111 -5.734,8.006 -0.345,0.346 -0.692,0.415 -1.106,0.415 L 0.482,-4.485 C 0.204,-4.485 0,-4.627 0,-4.974 v -0.828 c 0,-5.455 0.068,-10.008 0.346,-12.499 0.204,-1.723 0.482,-2.829 2.348,-3.107 0.902,-0.136 2.212,-0.204 2.965,-0.204 0.488,0 0.76,-0.346 0.76,-0.624 0,-0.414 -0.482,-0.618 -1.242,-0.618 -3.521,0 -8.556,0.204 -9.459,0.204 -1.174,0 -5.041,-0.204 -7.45,-0.204 -0.767,0 -1.181,0.204 -1.181,0.618 0,0.278 0.211,0.624 0.971,0.624 0.895,0 1.588,0.068 2.137,0.204 1.242,0.278 1.588,1.384 1.798,3.107 0.272,2.491 0.272,7.112 0.272,12.499 z" /></g><g
           transform="translate(541.4805,162.8315)"
           id="g52"><path
             id="path54"
             style="fill:#98002e;fill-opacity:1;fill-rule:nonzero;stroke:none"
             d="m 0,0 c 0,3.176 -0.55,4.417 -1.377,6.147 -0.415,0.896 -8.7,13.809 -10.844,16.917 -1.52,2.138 -2.761,3.522 -3.935,4.139 -0.761,0.414 -1.799,0.76 -2.559,0.76 -0.481,0 -0.895,0.21 -0.895,0.624 0,0.414 0.414,0.55 1.173,0.55 1.039,0 5.592,-0.136 7.601,-0.136 1.309,0 4.139,0.136 6.9,0.136 0.557,0 0.903,-0.136 0.903,-0.55 0,-0.481 -0.421,-0.481 -1.384,-0.759 -0.489,-0.136 -0.828,-0.414 -0.828,-0.896 0,-0.489 0.271,-1.174 0.753,-2.002 C -3.379,23.132 4.56,9.391 5.591,7.735 c 0.76,1.378 8.15,13.945 9.046,15.743 0.624,1.31 0.895,2.348 0.895,3.108 0,0.549 -0.271,1.106 -1.31,1.31 -0.549,0.135 -1.099,0.21 -1.099,0.691 0,0.414 0.339,0.55 1.032,0.55 2.001,0 4.145,-0.136 5.937,-0.136 1.316,0 5.32,0.136 6.494,0.136 0.692,0 1.106,-0.136 1.106,-0.482 0,-0.414 -0.482,-0.692 -1.174,-0.692 -0.624,0 -1.724,-0.271 -2.626,-0.685 -1.31,-0.624 -1.866,-1.181 -3.176,-2.769 C 18.715,22.162 10.009,8.217 8.91,5.734 8.014,3.59 8.149,1.798 8.149,-0.136 v -4.695 c 0,-0.971 0,-3.386 0.136,-5.87 0.136,-1.73 0.693,-2.836 2.49,-3.108 0.896,-0.142 2.205,-0.21 3.034,-0.21 0.691,0 1.038,-0.346 1.038,-0.617 0,-0.414 -0.482,-0.625 -1.31,-0.625 -3.8,0 -7.878,0.211 -9.527,0.211 -1.527,0 -5.598,-0.211 -7.871,-0.211 -0.834,0 -1.316,0.136 -1.316,0.625 0,0.271 0.271,0.617 0.963,0.617 0.835,0 1.595,0.068 2.144,0.21 1.242,0.272 1.724,1.378 1.86,3.108 C 0,-8.217 0,-5.802 0,-4.831 Z" /></g><g
           transform="translate(575.248,209.6709)"
           id="g56"><path
             id="path58"
             style="fill:#98002e;fill-opacity:1;fill-rule:nonzero;stroke:none"
             d="m 0,0 c -0.692,0.692 -0.76,0.896 -0.76,1.242 0,0.21 0.414,0.556 0.76,0.556 1.384,0 4.417,-0.902 5.733,-1.317 C 7.458,0 7.735,-0.482 7.735,-1.52 c 0,-4.214 -4.485,-11.597 -7.6,-14.779 -0.413,-0.414 -0.685,-0.55 -1.099,-0.55 -0.21,0 -0.42,0.136 -0.42,0.414 0,0.136 0.074,0.347 0.346,0.896 1.241,2.422 2.701,6.494 2.701,10.775 C 1.663,-2.484 0.617,-0.625 0,0" /></g><g
           transform="translate(579.46,148.3306)"
           id="g60"><path
             id="path62"
             style="fill:#98002e;fill-opacity:1;fill-rule:nonzero;stroke:none"
             d="m 0,0 c -0.964,0.414 -1.174,0.692 -1.174,2.001 0,3.176 0.278,6.84 0.346,7.804 0,0.896 0.278,1.52 0.76,1.52 0.55,0 0.624,-0.556 0.624,-0.971 0,-0.753 0.204,-2.001 0.55,-3.033 1.31,-4.349 5.869,-5.801 9.663,-5.801 5.252,0 8.427,3.311 8.427,7.457 0,2.551 -0.624,5.109 -6.005,8.285 l -3.522,2.07 c -7.186,4.213 -9.526,8.149 -9.526,13.327 0,7.185 6.9,11.806 15.321,11.806 3.935,0 7.051,-0.549 8.631,-0.963 0.557,-0.136 0.828,-0.346 0.828,-0.76 0,-0.76 -0.204,-2.416 -0.204,-7.044 0,-1.241 -0.278,-1.865 -0.76,-1.865 -0.413,0 -0.624,0.346 -0.624,1.038 0,0.549 -0.271,2.347 -1.581,3.867 -0.902,1.106 -2.836,2.762 -6.772,2.762 -4.349,0 -8.285,-2.28 -8.285,-6.283 0,-2.626 0.97,-4.696 6.426,-7.736 l 2.484,-1.377 c 8.007,-4.424 10.49,-8.91 10.49,-14.229 0,-4.35 -1.656,-7.872 -6.073,-10.979 C 17.126,-1.174 13.123,-1.521 9.873,-1.521 6.351,-1.521 2.626,-1.174 0,0" /></g><g
           transform="translate(168.5215,117.9639)"
           id="g64"><path
             id="path66"
             style="fill:#98002e;fill-opacity:1;fill-rule:nonzero;stroke:none"
             d="m 0,0 c 0,6.609 0.054,7.837 -0.055,9.221 -0.101,1.541 -0.508,1.948 -1.947,2.362 -0.353,0.102 -1.126,0.149 -1.737,0.149 -0.516,0 -0.774,0.156 -0.774,0.462 0,0.312 0.312,0.413 0.977,0.413 2.41,0 5.429,-0.101 6.765,-0.101 1.127,0 4.146,0.101 5.789,0.101 0.665,0 0.97,-0.101 0.97,-0.413 0,-0.306 -0.251,-0.462 -0.713,-0.462 -0.515,0 -0.773,-0.047 -1.336,-0.149 C 6.765,11.373 6.405,10.762 6.304,9.221 6.202,7.837 6.202,6.609 6.202,0 v -6.1 c 0,-6.352 1.228,-8.808 3.433,-10.552 1.995,-1.588 4.146,-1.744 5.686,-1.744 1.948,0 4.248,0.563 6.046,2.308 2.511,2.354 2.613,6.147 2.613,10.605 V 0 c 0,6.609 -0.055,7.837 -0.102,9.221 -0.102,1.487 -0.461,1.948 -1.9,2.362 -0.36,0.102 -1.126,0.149 -1.635,0.149 -0.516,0 -0.774,0.156 -0.774,0.462 0,0.312 0.312,0.413 0.923,0.413 2.307,0 5.334,-0.101 5.381,-0.101 0.516,0 3.535,0.101 5.279,0.101 0.618,0 0.923,-0.101 0.923,-0.413 0,-0.306 -0.258,-0.462 -0.767,-0.462 -0.516,0 -0.773,-0.047 -1.336,-0.149 C 28.743,11.373 28.438,10.762 28.336,9.221 28.282,7.837 28.228,6.609 28.228,0 v -4.662 c 0,-4.865 -0.509,-9.995 -4.303,-13.116 -3.175,-2.667 -6.609,-3.128 -9.527,-3.128 -2.361,0 -7.023,0.101 -10.3,2.972 C 1.791,-15.933 0,-12.703 0,-6.405 Z" /></g><g
           transform="translate(206.0786,103.5669)"
           id="g68"><path
             id="path70"
             style="fill:#98002e;fill-opacity:1;fill-rule:nonzero;stroke:none"
             d="m 0,0 c 0.102,-3.379 0.665,-4.404 1.54,-4.716 0.767,-0.258 1.635,-0.305 2.355,-0.305 0.509,0 0.767,-0.204 0.767,-0.462 0,-0.359 -0.408,-0.461 -1.025,-0.461 -2.918,0 -5.021,0.156 -5.843,0.156 -0.406,0 -2.558,-0.156 -4.865,-0.156 -0.617,0 -1.024,0.054 -1.024,0.461 0,0.258 0.305,0.462 0.719,0.462 0.611,0 1.432,0.047 2.049,0.203 1.174,0.306 1.33,1.486 1.385,5.279 l 0.406,25.826 c 0,0.869 0.306,1.486 0.767,1.486 0.563,0 1.181,-0.671 1.948,-1.439 0.563,-0.563 7.328,-7.477 13.89,-13.882 3.074,-3.027 9.065,-9.175 9.73,-9.785 h 0.204 l -0.455,19.366 c -0.054,2.659 -0.461,3.433 -1.54,3.84 -0.665,0.258 -1.744,0.258 -2.355,0.258 -0.563,0 -0.719,0.203 -0.719,0.461 0,0.36 0.462,0.408 1.127,0.408 2.354,0 4.763,-0.102 5.733,-0.102 0.516,0 2.206,0.102 4.411,0.102 0.617,0 1.024,-0.048 1.024,-0.408 0,-0.258 -0.257,-0.461 -0.767,-0.461 -0.461,0 -0.82,0 -1.384,-0.156 -1.228,-0.36 -1.587,-1.126 -1.641,-3.583 l -0.51,-27.468 c 0,-0.97 -0.359,-1.384 -0.719,-1.384 -0.767,0 -1.384,0.461 -1.846,0.923 -2.816,2.612 -8.454,7.994 -13.163,12.553 -4.92,4.716 -9.683,9.995 -10.559,10.762 h -0.156 z" /></g><g
           transform="translate(240.2017,117.9639)"
           id="g72"><path
             id="path74"
             style="fill:#98002e;fill-opacity:1;fill-rule:nonzero;stroke:none"
             d="m 0,0 c 0,6.609 0,7.837 -0.047,9.221 -0.109,1.487 -0.564,2.002 -1.541,2.307 -0.516,0.157 -1.072,0.204 -1.635,0.204 -0.468,0 -0.719,0.102 -0.719,0.516 0,0.258 0.359,0.359 1.072,0.359 1.689,0 4.77,-0.101 6.046,-0.101 1.126,0 4.051,0.101 5.795,0.101 0.563,0 0.915,-0.101 0.915,-0.359 0,-0.414 -0.251,-0.516 -0.712,-0.516 -0.461,0 -0.821,-0.047 -1.337,-0.149 C 6.609,11.373 6.25,10.762 6.147,9.221 6.046,7.837 6.046,6.609 6.046,0 v -7.688 c 0,-4.2 0,-7.681 0.204,-9.527 0.155,-1.181 0.461,-1.846 1.797,-2.049 0.611,-0.102 1.636,-0.156 2.301,-0.156 0.516,0 0.719,-0.258 0.719,-0.462 0,-0.305 -0.359,-0.461 -0.868,-0.461 -2.972,0 -6.046,0.156 -7.274,0.156 -1.025,0 -4.106,-0.156 -5.897,-0.156 -0.563,0 -0.869,0.156 -0.869,0.461 0,0.204 0.15,0.462 0.719,0.462 0.665,0 1.175,0.054 1.588,0.156 0.923,0.203 1.175,0.821 1.33,2.097 C 0,-15.369 0,-11.888 0,-7.688 Z" /></g><g
           transform="translate(255.5752,126.3154)"
           id="g76"><path
             id="path78"
             style="fill:#98002e;fill-opacity:1;fill-rule:nonzero;stroke:none"
             d="m 0,0 c -1.025,2.409 -1.69,2.816 -3.332,3.23 -0.665,0.149 -1.384,0.149 -1.744,0.149 -0.407,0 -0.509,0.211 -0.509,0.462 0,0.359 0.461,0.413 1.127,0.413 2.409,0 4.974,-0.101 6.555,-0.101 1.132,0 3.487,0.101 5.74,0.101 C 8.4,4.254 8.916,4.153 8.916,3.841 8.916,3.535 8.61,3.379 8.197,3.379 7.478,3.379 6.812,3.332 6.453,3.074 6.147,2.87 5.991,2.612 5.991,2.205 c 0,-0.563 0.414,-1.744 1.025,-3.284 l 7.586,-19.515 h 0.156 c 1.948,4.506 7.736,18.545 8.808,21.415 0.21,0.563 0.414,1.228 0.414,1.588 0,0.461 -0.204,0.611 -0.618,0.767 -0.508,0.156 -1.228,0.203 -1.791,0.203 -0.407,0 -0.774,0.156 -0.774,0.462 0,0.312 0.414,0.413 1.283,0.413 2.253,0 4.254,-0.101 4.817,-0.101 0.768,0 2.871,0.101 4.255,0.101 0.563,0 0.923,-0.101 0.923,-0.413 0,-0.306 -0.258,-0.462 -0.72,-0.462 -0.461,0 -1.431,0.055 -2.205,-0.509 -0.563,-0.413 -1.173,-1.078 -2.354,-3.84 -1.792,-4.106 -2.972,-6.46 -5.429,-11.787 -2.87,-6.358 -4.973,-11.121 -5.998,-13.326 -1.126,-2.511 -1.534,-3.176 -2.151,-3.176 -0.617,0 -0.977,0.563 -1.845,2.619 z" /></g><g
           transform="translate(290.9961,117.9639)"
           id="g80"><path
             id="path82"
             style="fill:#98002e;fill-opacity:1;fill-rule:nonzero;stroke:none"
             d="m 0,0 c 0,6.609 0,7.837 -0.048,9.221 -0.095,1.487 -0.481,1.948 -1.832,2.362 -0.339,0.102 -1.058,0.149 -1.683,0.149 -0.434,0 -0.719,0.156 -0.719,0.462 0,0.312 0.333,0.413 0.957,0.413 2.219,0 4.913,-0.101 6.12,-0.101 1.351,0 10.742,-0.054 11.557,0 0.773,0.047 1.444,0.203 1.784,0.251 0.238,0.054 0.482,0.203 0.672,0.203 0.244,0 0.292,-0.203 0.292,-0.407 0,-0.305 -0.245,-0.821 -0.34,-2.816 -0.048,-0.461 -0.142,-2.361 -0.237,-2.87 -0.048,-0.203 -0.149,-0.72 -0.482,-0.72 -0.292,0 -0.339,0.204 -0.339,0.564 0,0.312 -0.048,1.079 -0.292,1.588 -0.333,0.773 -0.672,1.384 -2.789,1.587 -0.726,0.109 -5.781,0.211 -6.65,0.211 -0.19,0 -0.285,-0.156 -0.285,-0.414 V -1.079 c 0,-0.251 0.047,-0.455 0.285,-0.455 0.964,0 6.46,0 7.417,0.102 1.011,0.102 1.642,0.203 2.022,0.665 0.339,0.306 0.482,0.563 0.678,0.563 0.19,0 0.34,-0.203 0.34,-0.461 0,-0.258 -0.102,-0.977 -0.34,-3.176 -0.094,-0.875 -0.196,-2.619 -0.196,-2.924 0,-0.36 -0.048,-0.97 -0.428,-0.97 -0.292,0 -0.387,0.149 -0.387,0.359 -0.047,0.461 -0.047,1.025 -0.142,1.588 -0.245,0.869 -0.774,1.534 -2.361,1.689 -0.774,0.102 -5.592,0.204 -6.65,0.204 -0.191,0 -0.238,-0.204 -0.238,-0.461 v -3.481 c 0,-1.486 -0.047,-5.178 0,-6.46 0.095,-2.972 1.398,-3.637 5.727,-3.637 1.113,0 2.891,0.054 3.997,0.563 1.065,0.516 1.547,1.438 1.832,3.23 0.095,0.461 0.196,0.665 0.482,0.665 0.339,0 0.386,-0.563 0.386,-1.025 0,-0.97 -0.339,-3.942 -0.576,-4.817 -0.292,-1.127 -0.679,-1.127 -2.266,-1.127 -3.176,0 -5.727,0.054 -7.804,0.156 -2.069,0.048 -3.657,0.102 -4.913,0.102 -0.482,0 -1.391,-0.054 -2.408,-0.054 -1.012,-0.048 -2.07,-0.102 -2.939,-0.102 -0.529,0 -0.814,0.156 -0.814,0.461 0,0.204 0.143,0.462 0.672,0.462 0.624,0 1.113,0.054 1.493,0.156 0.868,0.203 1.106,1.024 1.255,2.307 C 0,-15.111 0,-11.678 0,-7.688 Z" /></g><g
           transform="translate(320.1025,114.582)"
           id="g84"><path
             id="path86"
             style="fill:#98002e;fill-opacity:1;fill-rule:nonzero;stroke:none"
             d="m 0,0 c 0,-0.462 0.102,-0.618 0.414,-0.767 0.97,-0.305 2.3,-0.414 3.433,-0.414 1.792,0 2.403,0.156 3.169,0.719 1.384,0.978 2.925,2.871 2.925,6.454 0,6.154 -4.201,7.742 -6.867,7.742 -1.127,0 -2.205,-0.054 -2.66,-0.156 C 0.102,13.476 0,13.32 0,12.967 Z m -5.741,3.379 c 0,6.616 0,7.844 -0.047,9.228 -0.102,1.486 -0.516,1.948 -1.947,2.355 -0.36,0.101 -1.127,0.156 -1.799,0.156 -0.454,0 -0.766,0.149 -0.766,0.462 0,0.305 0.359,0.406 1.024,0.406 2.361,0 5.225,-0.101 6.148,-0.101 1.54,0 5.639,0.101 7.023,0.101 2.87,0 6.147,-0.257 8.556,-1.845 1.283,-0.869 3.176,-3.074 3.176,-5.992 0,-3.23 -1.846,-6.1 -6.25,-9.635 3.997,-4.92 7.173,-8.862 9.887,-11.577 2.511,-2.51 4.105,-2.72 4.818,-2.87 0.461,-0.108 0.719,-0.108 1.079,-0.108 0.353,0 0.563,-0.251 0.563,-0.455 0,-0.359 -0.306,-0.462 -0.875,-0.462 h -4.303 c -2.51,0 -3.738,0.252 -4.919,0.869 -1.947,0.977 -3.637,3.026 -6.148,6.406 -1.791,2.354 -3.684,5.279 -4.254,5.944 -0.258,0.258 -0.509,0.305 -0.814,0.305 L 0.359,-3.332 C 0.156,-3.332 0,-3.434 0,-3.691 v -0.611 c 0,-4.051 0.054,-7.43 0.258,-9.276 0.156,-1.282 0.359,-2.104 1.737,-2.307 0.672,-0.102 1.642,-0.156 2.205,-0.156 0.36,0 0.564,-0.251 0.564,-0.455 0,-0.312 -0.353,-0.462 -0.917,-0.462 -2.619,0 -6.358,0.15 -7.023,0.15 -0.875,0 -3.739,-0.15 -5.53,-0.15 -0.57,0 -0.875,0.15 -0.875,0.462 0,0.204 0.156,0.455 0.719,0.455 0.665,0 1.174,0.054 1.588,0.156 0.923,0.203 1.181,1.025 1.33,2.307 0.203,1.846 0.203,5.279 0.203,9.276 z" /></g><g
           transform="translate(341.5957,98.1719)"
           id="g88"><path
             id="path90"
             style="fill:#98002e;fill-opacity:1;fill-rule:nonzero;stroke:none"
             d="m 0,0 c -0.672,0.305 -0.801,0.522 -0.801,1.486 0,2.415 0.17,5.041 0.211,5.741 0.047,0.658 0.169,1.139 0.508,1.139 0.374,0 0.421,-0.393 0.421,-0.746 0,-0.57 0.17,-1.486 0.38,-2.232 0.923,-3.244 3.406,-4.425 6.012,-4.425 3.787,0 5.639,2.674 5.639,4.995 0,2.15 -0.638,4.207 -4.125,7.009 l -1.934,1.581 c -4.628,3.766 -6.223,6.833 -6.223,10.382 0,4.824 3.868,8.285 9.717,8.285 2.728,0 4.499,-0.441 5.591,-0.746 0.38,-0.089 0.591,-0.218 0.591,-0.53 0,-0.57 -0.17,-1.838 -0.17,-5.258 0,-0.964 -0.129,-1.31 -0.462,-1.31 -0.298,0 -0.42,0.258 -0.42,0.787 0,0.394 -0.21,1.751 -1.093,2.891 -0.631,0.834 -1.852,2.151 -4.587,2.151 -3.114,0 -5.007,-1.887 -5.007,-4.519 0,-2.016 0.97,-3.549 4.458,-6.304 l 1.18,-0.923 c 5.049,-4.078 6.902,-7.01 6.902,-11.176 0,-2.538 -0.93,-5.564 -3.956,-7.62 C 10.728,-0.747 8.374,-1.14 6.141,-1.14 3.705,-1.14 1.812,-0.835 0,0" /></g><g
           transform="translate(365.5068,117.9639)"
           id="g92"><path
             id="path94"
             style="fill:#98002e;fill-opacity:1;fill-rule:nonzero;stroke:none"
             d="m 0,0 c 0,6.609 0,7.837 -0.055,9.221 -0.101,1.487 -0.563,2.002 -1.533,2.307 -0.516,0.157 -1.079,0.204 -1.642,0.204 -0.461,0 -0.713,0.102 -0.713,0.516 0,0.258 0.353,0.359 1.072,0.359 1.69,0 4.764,-0.101 6.046,-0.101 1.127,0 4.045,0.101 5.788,0.101 0.571,0 0.923,-0.101 0.923,-0.359 0,-0.414 -0.258,-0.516 -0.712,-0.516 -0.468,0 -0.821,-0.047 -1.337,-0.149 C 6.609,11.373 6.249,10.762 6.147,9.221 6.046,7.837 6.046,6.609 6.046,0 v -7.688 c 0,-4.2 0,-7.681 0.203,-9.527 0.156,-1.181 0.461,-1.846 1.792,-2.049 0.617,-0.102 1.642,-0.156 2.307,-0.156 0.515,0 0.719,-0.258 0.719,-0.462 0,-0.305 -0.36,-0.461 -0.869,-0.461 -2.978,0 -6.046,0.156 -7.281,0.156 -1.024,0 -4.098,-0.156 -5.889,-0.156 -0.564,0 -0.876,0.156 -0.876,0.461 0,0.204 0.157,0.462 0.72,0.462 0.665,0 1.18,0.054 1.587,0.156 0.923,0.203 1.181,0.821 1.337,2.097 C 0,-15.369 0,-11.888 0,-7.688 Z" /></g><g
           transform="translate(388.4893,127.9038)"
           id="g96"><path
             id="path98"
             style="fill:#98002e;fill-opacity:1;fill-rule:nonzero;stroke:none"
             d="m 0,0 -6.446,-0.156 c -2.504,-0.048 -3.542,-0.36 -4.18,-1.33 -0.441,-0.618 -0.638,-1.181 -0.74,-1.486 -0.095,-0.36 -0.197,-0.563 -0.488,-0.563 -0.299,0 -0.394,0.258 -0.394,0.719 0,0.712 0.834,4.92 0.936,5.273 0.095,0.569 0.245,0.82 0.489,0.82 0.346,0 0.787,-0.352 1.873,-0.508 1.276,-0.157 2.897,-0.204 4.322,-0.204 h 17.561 c 1.378,0 2.314,0.102 2.952,0.204 0.692,0.101 1.038,0.203 1.18,0.203 0.299,0 0.347,-0.258 0.347,-0.923 0,-0.923 -0.096,-4.153 -0.096,-5.279 -0.054,-0.461 -0.149,-0.712 -0.393,-0.712 -0.346,0 -0.448,0.203 -0.495,0.868 l -0.048,0.462 c -0.102,1.126 -1.228,2.456 -5.116,2.51 L 5.801,0 v -17.622 c 0,-3.997 0.048,-7.43 0.245,-9.33 0.149,-1.228 0.393,-2.049 1.676,-2.253 0.59,-0.102 1.574,-0.156 2.212,-0.156 0.495,0 0.692,-0.251 0.692,-0.461 0,-0.306 -0.346,-0.462 -0.834,-0.462 -2.857,0 -5.761,0.156 -6.99,0.156 -0.984,0 -3.935,-0.156 -5.659,-0.156 -0.536,0 -0.834,0.156 -0.834,0.462 0,0.21 0.149,0.461 0.691,0.461 0.639,0 1.182,0.054 1.521,0.156 0.889,0.204 1.133,1.025 1.282,2.307 C 0,-25.052 0,-21.619 0,-17.622 Z" /></g><g
           transform="translate(421.2446,108.9463)"
           id="g100"><path
             id="path102"
             style="fill:#98002e;fill-opacity:1;fill-rule:nonzero;stroke:none"
             d="m 0,0 c 0,2.354 -0.408,3.277 -1.025,4.56 -0.305,0.665 -6.453,10.246 -8.048,12.553 -1.119,1.588 -2.049,2.613 -2.917,3.074 -0.564,0.305 -1.33,0.563 -1.894,0.563 -0.359,0 -0.664,0.156 -0.664,0.461 0,0.306 0.305,0.408 0.868,0.408 0.767,0 4.153,-0.102 5.632,-0.102 0.977,0 3.081,0.102 5.13,0.102 0.407,0 0.665,-0.102 0.665,-0.408 0,-0.359 -0.312,-0.359 -1.025,-0.563 -0.359,-0.101 -0.617,-0.305 -0.617,-0.665 0,-0.359 0.204,-0.875 0.563,-1.485 0.821,-1.331 6.711,-11.529 7.484,-12.757 0.563,1.024 6.046,10.347 6.711,11.677 0.462,0.978 0.665,1.745 0.665,2.308 0,0.407 -0.203,0.821 -0.97,0.977 -0.414,0.102 -0.828,0.149 -0.828,0.508 0,0.306 0.265,0.408 0.773,0.408 1.487,0 3.075,-0.102 4.405,-0.102 0.976,0 3.949,0.102 4.817,0.102 0.516,0 0.821,-0.102 0.821,-0.353 0,-0.312 -0.359,-0.516 -0.868,-0.516 -0.462,0 -1.282,-0.203 -1.948,-0.509 C 16.753,19.78 16.346,19.366 15.375,18.192 13.883,16.448 7.43,6.093 6.609,4.254 5.944,2.667 6.045,1.33 6.045,-0.102 v -3.487 c 0,-0.713 0,-2.511 0.102,-4.35 0.102,-1.282 0.516,-2.103 1.846,-2.307 0.665,-0.102 1.642,-0.156 2.253,-0.156 0.509,0 0.774,-0.258 0.774,-0.461 0,-0.306 -0.36,-0.462 -0.978,-0.462 -2.816,0 -5.842,0.156 -7.07,0.156 -1.127,0 -4.146,-0.156 -5.843,-0.156 -0.61,0 -0.97,0.102 -0.97,0.462 0,0.203 0.204,0.461 0.719,0.461 0.611,0 1.174,0.054 1.581,0.156 0.923,0.204 1.283,1.025 1.392,2.307 C 0,-6.1 0,-4.302 0,-3.589 Z" /></g><g
           transform="translate(457.3652,112.2134)"
           id="g104"><path
             id="path106"
             style="fill:#717275;fill-opacity:1;fill-rule:nonzero;stroke:none"
             d="m 0,0 c -0.455,0.203 -0.543,0.353 -0.543,0.99 0,1.602 0.115,3.352 0.142,3.814 0.027,0.441 0.116,0.76 0.346,0.76 0.251,0 0.285,-0.265 0.285,-0.496 0,-0.38 0.116,-0.99 0.258,-1.485 0.624,-2.158 2.307,-2.945 4.078,-2.945 2.572,0 3.827,1.778 3.827,3.324 0,1.425 -0.427,2.769 -2.795,4.662 L 4.281,9.669 c -3.141,2.504 -4.227,4.546 -4.227,6.908 0,3.202 2.633,5.503 6.595,5.503 1.86,0 3.054,-0.292 3.8,-0.496 0.258,-0.061 0.401,-0.142 0.401,-0.353 0,-0.373 -0.116,-1.221 -0.116,-3.494 0,-0.638 -0.088,-0.868 -0.319,-0.868 -0.197,0 -0.278,0.169 -0.278,0.522 0,0.258 -0.149,1.16 -0.746,1.92 -0.428,0.557 -1.256,1.425 -3.108,1.425 -2.117,0 -3.4,-1.248 -3.4,-2.999 0,-1.337 0.659,-2.355 3.027,-4.194 l 0.8,-0.61 C 10.164,10.28 11.393,8.271 11.393,5.502 11.393,3.813 10.761,1.805 8.706,0.434 7.28,-0.496 5.679,-0.76 4.166,-0.76 2.51,-0.76 1.228,-0.557 0,0" /></g><g
           transform="translate(474.0371,123.4272)"
           id="g108"><path
             id="path110"
             style="fill:#717275;fill-opacity:1;fill-rule:nonzero;stroke:none"
             d="m 0,0 c 0,3.759 0,4.458 -0.027,5.245 -0.055,0.841 -0.306,1.133 -0.842,1.31 -0.278,0.088 -0.584,0.115 -0.895,0.115 -0.252,0 -0.387,0.061 -0.387,0.292 0,0.149 0.196,0.204 0.583,0.204 0.923,0 2.599,-0.055 3.305,-0.055 0.61,0 2.205,0.055 3.155,0.055 0.312,0 0.503,-0.055 0.503,-0.204 C 5.395,6.731 5.258,6.67 5.007,6.67 4.756,6.67 4.56,6.643 4.274,6.582 3.61,6.467 3.413,6.121 3.359,5.245 3.297,4.458 3.297,3.759 3.297,0 v -4.37 c 0,-2.388 0,-4.37 0.116,-5.415 0.081,-0.672 0.251,-1.051 0.977,-1.167 0.339,-0.061 0.896,-0.088 1.262,-0.088 0.278,0 0.387,-0.143 0.387,-0.265 0,-0.169 -0.197,-0.258 -0.476,-0.258 -1.621,0 -3.297,0.089 -3.969,0.089 -0.563,0 -2.239,-0.089 -3.216,-0.089 -0.306,0 -0.475,0.089 -0.475,0.258 0,0.122 0.081,0.265 0.393,0.265 0.36,0 0.645,0.027 0.869,0.088 0.502,0.116 0.638,0.469 0.726,1.195 C 0,-8.74 0,-6.758 0,-4.37 Z" /></g><g
           transform="translate(485.2319,115.2422)"
           id="g112"><path
             id="path114"
             style="fill:#717275;fill-opacity:1;fill-rule:nonzero;stroke:none"
             d="m 0,0 c 0.061,-1.92 0.38,-2.504 0.875,-2.681 0.435,-0.142 0.93,-0.176 1.337,-0.176 0.292,0 0.441,-0.115 0.441,-0.258 0,-0.203 -0.231,-0.264 -0.583,-0.264 -1.663,0 -2.857,0.088 -3.325,0.088 -0.231,0 -1.453,-0.088 -2.762,-0.088 -0.353,0 -0.584,0.027 -0.584,0.264 0,0.143 0.177,0.258 0.408,0.258 0.346,0 0.814,0.034 1.167,0.122 0.665,0.17 0.753,0.841 0.787,2.999 l 0.231,14.677 c 0,0.496 0.169,0.849 0.434,0.849 0.319,0 0.671,-0.38 1.106,-0.814 C -0.149,14.65 3.698,10.721 7.43,7.077 9.174,5.36 12.58,1.866 12.96,1.513 h 0.123 l -0.265,11.013 c -0.027,1.513 -0.265,1.954 -0.876,2.185 -0.379,0.143 -0.99,0.143 -1.336,0.143 -0.326,0 -0.414,0.122 -0.414,0.264 0,0.204 0.265,0.231 0.644,0.231 1.337,0 2.708,-0.055 3.264,-0.055 0.292,0 1.249,0.055 2.504,0.055 0.346,0 0.583,-0.027 0.583,-0.231 0,-0.142 -0.148,-0.264 -0.44,-0.264 -0.258,0 -0.462,0 -0.781,-0.082 -0.705,-0.204 -0.909,-0.645 -0.936,-2.043 L 14.738,-2.884 c 0,-0.55 -0.203,-0.787 -0.407,-0.787 -0.434,0 -0.787,0.264 -1.045,0.522 C 11.678,-1.663 8.475,1.397 5.794,3.99 2.999,6.67 0.292,9.669 -0.204,10.11 h -0.088 z" /></g><g
           transform="translate(505.6211,114.2231)"
           id="g116"><path
             id="path118"
             style="fill:#717275;fill-opacity:1;fill-rule:nonzero;stroke:none"
             d="m 0,0 c -2.531,2.124 -3.203,4.919 -3.203,7.308 0,1.69 0.549,4.607 2.999,6.792 1.866,1.629 4.316,2.619 8.129,2.619 1.602,0 2.565,-0.115 3.725,-0.264 0.964,-0.143 1.812,-0.319 2.565,-0.407 0.292,-0.027 0.38,-0.143 0.38,-0.292 0,-0.204 -0.061,-0.495 -0.115,-1.364 -0.061,-0.821 -0.061,-2.185 -0.088,-2.681 -0.034,-0.352 -0.116,-0.617 -0.347,-0.617 -0.21,0 -0.264,0.204 -0.264,0.53 -0.027,0.787 -0.353,1.655 -0.99,2.3 -0.876,0.841 -2.592,1.452 -4.954,1.452 -2.246,0 -3.671,-0.407 -4.838,-1.391 C 1.105,12.35 0.645,9.961 0.645,7.545 c 0,-5.883 4.539,-8.685 7.98,-8.685 2.272,0 3.521,0.176 4.545,1.316 0.434,0.496 0.788,1.195 0.875,1.656 0.055,0.38 0.109,0.495 0.313,0.495 0.176,0 0.292,-0.23 0.292,-0.434 0,-0.292 -0.292,-2.45 -0.55,-3.291 -0.115,-0.441 -0.238,-0.557 -0.672,-0.733 -1.017,-0.407 -2.972,-0.55 -4.627,-0.55 C 5.299,-2.681 2.334,-1.955 0,0" /></g><g
           transform="translate(524.8755,123.4272)"
           id="g120"><path
             id="path122"
             style="fill:#717275;fill-opacity:1;fill-rule:nonzero;stroke:none"
             d="m 0,0 c 0,3.759 0,4.458 -0.027,5.245 -0.061,0.841 -0.292,1.106 -1.106,1.337 -0.211,0.061 -0.645,0.088 -1.025,0.088 -0.258,0 -0.434,0.088 -0.434,0.265 0,0.176 0.203,0.231 0.583,0.231 1.337,0 2.972,-0.055 3.698,-0.055 0.814,0 6.494,-0.033 6.99,0 0.467,0.027 0.875,0.116 1.078,0.143 0.143,0.027 0.292,0.115 0.408,0.115 0.149,0 0.176,-0.115 0.176,-0.231 0,-0.176 -0.15,-0.468 -0.204,-1.601 C 10.11,5.272 10.049,4.193 9.988,3.902 9.961,3.787 9.9,3.495 9.703,3.495 9.527,3.495 9.5,3.61 9.5,3.813 9.5,3.99 9.465,4.431 9.323,4.716 9.12,5.157 8.916,5.503 7.634,5.625 7.193,5.68 4.139,5.741 3.61,5.741 3.494,5.741 3.434,5.652 3.434,5.503 v -6.114 c 0,-0.149 0.033,-0.264 0.176,-0.264 0.583,0 3.908,0 4.485,0.061 0.617,0.054 0.991,0.115 1.228,0.38 0.204,0.169 0.285,0.319 0.407,0.319 0.116,0 0.204,-0.115 0.204,-0.265 0,-0.142 -0.061,-0.55 -0.204,-1.805 -0.061,-0.495 -0.122,-1.486 -0.122,-1.662 0,-0.204 -0.027,-0.55 -0.257,-0.55 -0.177,0 -0.231,0.088 -0.231,0.204 -0.034,0.264 -0.034,0.583 -0.088,0.902 -0.15,0.496 -0.469,0.875 -1.432,0.964 -0.462,0.054 -3.372,0.115 -4.017,0.115 -0.116,0 -0.149,-0.115 -0.149,-0.265 v -1.981 c 0,-0.841 -0.028,-2.938 0,-3.671 0.06,-1.689 0.848,-2.063 3.467,-2.063 0.671,0 1.75,0.027 2.422,0.319 0.638,0.292 0.93,0.814 1.106,1.832 0.054,0.265 0.115,0.38 0.292,0.38 0.204,0 0.231,-0.319 0.231,-0.584 0,-0.549 -0.204,-2.238 -0.346,-2.734 -0.177,-0.645 -0.415,-0.645 -1.371,-0.645 -1.921,0 -3.467,0.028 -4.716,0.089 -1.255,0.027 -2.219,0.061 -2.972,0.061 -0.292,0 -0.848,-0.034 -1.459,-0.034 -0.61,-0.027 -1.255,-0.055 -1.778,-0.055 -0.319,0 -0.495,0.089 -0.495,0.258 0,0.122 0.088,0.265 0.407,0.265 0.38,0 0.672,0.027 0.903,0.088 0.522,0.116 0.671,0.584 0.759,1.31 C 0,-8.59 0,-6.643 0,-4.37 Z" /></g><g
           transform="translate(551.9351,125.3506)"
           id="g124"><path
             id="path126"
             style="fill:#717275;fill-opacity:1;fill-rule:nonzero;stroke:none"
             d="m 0,0 v 3.813 c 0,0.699 0,1.052 -0.434,1.052 -0.557,0 -2.742,-1.14 -3.379,-1.398 -0.15,-0.061 -0.292,-0.115 -0.408,-0.115 -0.088,0 -0.237,0.143 -0.237,0.319 0,0.176 0.149,0.319 0.292,0.407 0.115,0.054 5.713,3.725 6.731,4.485 0.258,0.177 0.522,0.38 0.753,0.38 0.265,0 0.353,-0.318 0.353,-0.61 0,-0.238 -0.176,-3.122 -0.176,-7.573 v -5.395 c 0,-2.795 0,-5.272 0.115,-6.548 0.088,-0.936 0.237,-1.37 1.167,-1.574 0.441,-0.088 1.689,-0.176 1.92,-0.176 0.122,0 0.265,-0.088 0.265,-0.292 0,-0.204 -0.143,-0.265 -0.468,-0.265 -2.212,0 -4.078,0.089 -4.866,0.089 -0.665,0 -3.114,-0.089 -4.98,-0.089 -0.319,0 -0.495,0.061 -0.495,0.265 0,0.204 0.122,0.292 0.237,0.292 0.319,0 1.805,0.088 2.327,0.204 0.93,0.203 1.079,0.61 1.168,1.546 0.115,1.276 0.176,3.753 0.142,6.548 z" /></g><g
           transform="translate(566.499,133.0405)"
           id="g128"><path
             id="path130"
             style="fill:#717275;fill-opacity:1;fill-rule:nonzero;stroke:none"
             d="m 0,0 c -2.531,0 -3.556,-1.805 -3.556,-3.44 0,-1.805 1.255,-2.999 3.909,-4.486 0.841,0.381 2.85,1.514 2.85,4.459 C 3.203,-1.283 1.75,0 0,0 m -0.176,-20.241 c 2.273,0 4.112,1.717 4.112,4.397 0,2.911 -2.335,4.281 -4.927,5.795 -1.574,-0.903 -3.433,-2.68 -3.433,-5.653 0,-2.592 1.893,-4.539 4.248,-4.539 m -7.546,4.363 c 0,3.236 2.537,5.388 5.361,6.527 -2.416,1.256 -4.221,2.857 -4.221,5.334 0,2.266 1.954,5.272 6.901,5.272 3.556,0 5.971,-1.635 5.971,-4.458 0,-3.06 -2.68,-4.777 -4.282,-5.387 2.07,-1.113 5.3,-2.918 5.3,-6.528 0,-3.434 -2.823,-6.467 -7.716,-6.467 -4.308,0 -7.314,2.124 -7.314,5.707" /></g><g
           transform="translate(582.228,132.9814)"
           id="g132"><path
             id="path134"
             style="fill:#717275;fill-opacity:1;fill-rule:nonzero;stroke:none"
             d="m 0,0 c -2.185,0 -3.759,-2.999 -3.759,-9.642 0,-5.042 1.255,-10.572 4.458,-10.572 2.362,0 3.82,3.99 3.82,9.642 C 4.519,-5.537 3.176,0 0,0 m 0.149,-21.524 c -5.74,0 -7.315,6.637 -7.315,10.776 0,6.785 2.389,12.058 7.777,12.058 5.767,0 7.314,-6.114 7.314,-10.748 0,-7.22 -2.768,-12.086 -7.776,-12.086" /></g><g
           transform="translate(590.5601,111.9507)"
           id="g136"><path
             id="path138"
             style="fill:#717275;fill-opacity:1;fill-rule:nonzero;stroke:none"
             d="m 0,0 c -0.204,0 -0.408,0.176 -0.408,0.407 0,0.231 0.292,0.495 0.584,0.76 4.078,3.583 9.873,8.122 9.873,14.27 0,4.601 -2.538,5.537 -3.99,5.537 -1.255,0 -2.219,-0.238 -3.087,-1.052 -0.7,-0.672 -1.222,-2.036 -1.222,-2.796 0,-0.292 -0.088,-0.549 -0.38,-0.549 -0.149,0 -0.237,0.203 -0.265,0.549 -0.026,0.265 -0.176,2.681 -0.176,3.529 0,0.258 0.034,0.373 0.353,0.577 1.133,0.583 2.707,1.113 5.272,1.113 5.123,0 7.308,-2.803 7.308,-6.209 C 13.862,10.483 7.6,5.564 3.84,2.565 3.698,2.449 3.759,2.361 3.901,2.361 h 1.981 c 0.496,0 3.93,0.027 5.015,0.177 2.009,0.231 2.965,1.221 3.318,2.591 0.088,0.347 0.177,0.462 0.347,0.462 0.203,0 0.237,-0.258 0.237,-0.549 0,-0.469 -0.556,-3.176 -0.848,-4.167 C 13.72,0.088 13.251,0 11.42,0 Z" /></g><g
           transform="translate(43.4023,44.0112)"
           id="g140"><path
             id="path142"
             style="fill:#717275;fill-opacity:1;fill-rule:nonzero;stroke:none"
             d="m 0,0 c 0,-5.205 2.429,-10.334 8.244,-10.334 5.809,0 8.245,5.129 8.245,10.334 0,5.204 -2.436,10.334 -8.245,10.334 C 2.429,10.334 0,5.204 0,0 m 21.232,0 c 0,-7.75 -4.858,-14.209 -12.988,-14.209 -8.129,0 -12.994,6.459 -12.994,14.209 0,7.749 4.865,14.208 12.994,14.208 8.13,0 12.988,-6.459 12.988,-14.208" /></g><g
           transform="translate(67.5996,50.0874)"
           id="g144"><path
             id="path146"
             style="fill:#717275;fill-opacity:1;fill-rule:nonzero;stroke:none"
             d="M 0,0 H 4.105 V -2.884 L 4.18,-2.965 c 1.289,2.171 3.528,3.501 6.113,3.501 4.255,0 6.956,-2.28 6.956,-6.69 v -13.483 h -4.336 v 12.343 c -0.075,3.08 -1.289,4.41 -3.834,4.41 -2.891,0 -4.75,-2.28 -4.75,-5.17 V -19.637 H 0 Z" /></g><g
           transform="translate(102.1294,41.9971)"
           id="g148"><path
             id="path150"
             style="fill:#717275;fill-opacity:1;fill-rule:nonzero;stroke:none"
             d="m 0,0 c -0.149,2.734 -2.015,5.205 -4.94,5.205 -2.999,0 -5.048,-2.28 -5.164,-5.205 z m -10.104,-2.85 c 0,-3.074 1.67,-5.808 5.279,-5.808 2.505,0 4.031,1.099 4.784,3.263 h 4.106 c -0.95,-4.288 -4.594,-6.683 -8.89,-6.683 -6.154,0 -9.608,4.288 -9.608,10.327 0,5.591 3.644,10.376 9.493,10.376 6.195,0 9.995,-5.585 9.269,-11.475 z" /></g><g
           transform="translate(120.6289,57.5728)"
           id="g152"><path
             id="path154"
             style="fill:#717275;fill-opacity:1;fill-rule:nonzero;stroke:none"
             d="m 0,0 h 4.75 v -15.804 c 0,-3.644 0.224,-7.864 6.378,-7.864 6.155,0 6.386,4.22 6.386,7.864 V 0 h 4.749 v -17.358 c 0,-6.955 -4.444,-10.409 -11.135,-10.409 C 4.445,-27.767 0,-24.313 0,-17.358 Z" /></g><g
           transform="translate(146.9907,50.0874)"
           id="g156"><path
             id="path158"
             style="fill:#717275;fill-opacity:1;fill-rule:nonzero;stroke:none"
             d="M 0,0 H 4.105 V -2.884 L 4.18,-2.965 c 1.289,2.171 3.528,3.501 6.113,3.501 4.255,0 6.956,-2.28 6.956,-6.69 v -13.483 h -4.336 v 12.343 c -0.075,3.08 -1.289,4.41 -3.834,4.41 -2.891,0 -4.75,-2.28 -4.75,-5.17 V -19.637 H 0 Z" /></g><path
           id="path160"
           style="fill:#717275;fill-opacity:1;fill-rule:nonzero;stroke:none"
           d="m 168.15,50.087 h 4.329 V 30.449 h -4.329 z m 0,7.484 h 4.329 v -4.105 h -4.329 z" /><g
           transform="translate(175.2524,50.0874)"
           id="g162"><path
             id="path164"
             style="fill:#717275;fill-opacity:1;fill-rule:nonzero;stroke:none"
             d="M 0,0 H 4.709 L 9.69,-15.078 H 9.765 L 14.548,0 h 4.486 L 12.003,-19.637 H 7.138 Z" /></g><g
           transform="translate(209.6304,41.9971)"
           id="g166"><path
             id="path168"
             style="fill:#717275;fill-opacity:1;fill-rule:nonzero;stroke:none"
             d="m 0,0 c -0.149,2.734 -2.016,5.205 -4.94,5.205 -2.999,0 -5.049,-2.28 -5.164,-5.205 z m -10.104,-2.85 c 0,-3.074 1.669,-5.808 5.279,-5.808 2.511,0 4.031,1.099 4.784,3.263 h 4.105 c -0.95,-4.288 -4.593,-6.683 -8.889,-6.683 -6.154,0 -9.608,4.288 -9.608,10.327 0,5.591 3.643,10.376 9.493,10.376 6.195,0 9.995,-5.585 9.269,-11.475 z" /></g><g
           transform="translate(217.2666,50.0874)"
           id="g170"><path
             id="path172"
             style="fill:#717275;fill-opacity:1;fill-rule:nonzero;stroke:none"
             d="m 0,0 h 4.064 v -3.8 h 0.075 c 0.495,2.09 3.081,4.336 5.741,4.336 0.984,0 1.248,-0.081 1.628,-0.115 v -4.18 c -0.604,0.074 -1.248,0.19 -1.859,0.19 -2.965,0 -5.32,-2.395 -5.32,-6.725 v -9.343 H 0 Z" /></g><g
           transform="translate(233.9048,36.7559)"
           id="g174"><path
             id="path176"
             style="fill:#717275;fill-opacity:1;fill-rule:nonzero;stroke:none"
             d="m 0,0 c 0.23,-2.504 2.124,-3.42 4.444,-3.42 1.636,0 4.479,0.339 4.37,2.586 -0.115,2.272 -3.271,2.544 -6.419,3.263 -3.196,0.686 -6.311,1.825 -6.311,5.816 0,4.288 4.635,5.618 8.204,5.618 4.031,0 7.674,-1.669 8.211,-6.039 H 7.979 C 7.6,9.873 5.89,10.443 3.99,10.443 2.734,10.443 0.414,10.145 0.414,8.435 0.414,6.304 3.61,5.999 6.799,5.279 9.954,4.56 13.144,3.42 13.144,-0.455 c 0,-4.675 -4.71,-6.385 -8.774,-6.385 -4.94,0 -8.625,2.206 -8.699,6.84 z" /></g><path
           id="path178"
           style="fill:#717275;fill-opacity:1;fill-rule:nonzero;stroke:none"
           d="m 249.706,50.087 h 4.329 V 30.449 h -4.329 z m 0,7.484 h 4.329 v -4.105 h -4.329 z" /><g
           transform="translate(256.0132,50.0874)"
           id="g180"><path
             id="path182"
             style="fill:#717275;fill-opacity:1;fill-rule:nonzero;stroke:none"
             d="M 0,0 H 3.264 V 5.89 H 7.6 V 0 h 3.908 V -3.23 H 7.6 v -10.484 c 0,-1.784 0.149,-2.7 2.083,-2.7 0.611,0 1.221,0 1.825,0.156 v -3.346 c -0.949,-0.074 -1.859,-0.224 -2.809,-0.224 -4.519,0 -5.354,1.745 -5.435,5.015 V -3.23 L 0,-3.23 Z" /></g><g
           transform="translate(268.4707,50.0874)"
           id="g184"><path
             id="path186"
             style="fill:#717275;fill-opacity:1;fill-rule:nonzero;stroke:none"
             d="M 0,0 H 4.75 L 9.88,-14.664 H 9.954 L 14.928,0 h 4.526 l -7.641,-20.703 c -1.404,-3.535 -2.429,-6.724 -6.948,-6.724 -1.025,0 -2.015,0.074 -3.006,0.231 v 3.643 c 0.685,-0.115 1.371,-0.264 2.057,-0.264 2.008,0 2.503,1.065 3.039,2.734 l 0.489,1.52 z" /></g><path
           id="path188"
           style="fill:#717275;fill-opacity:1;fill-rule:nonzero;stroke:none"
           d="m 286.89,35.58 h 5.279 v -5.13 h -5.279 z" /><g
           transform="translate(311.585,44.0112)"
           id="g190"><path
             id="path192"
             style="fill:#717275;fill-opacity:1;fill-rule:nonzero;stroke:none"
             d="m 0,0 c 0,-5.205 2.429,-10.334 8.244,-10.334 5.809,0 8.245,5.129 8.245,10.334 0,5.204 -2.436,10.334 -8.245,10.334 C 2.429,10.334 0,5.204 0,0 m 21.238,0 c 0,-7.75 -4.864,-14.209 -12.994,-14.209 -8.129,0 -12.994,6.459 -12.994,14.209 0,7.749 4.865,14.208 12.994,14.208 8.13,0 12.994,-6.459 12.994,-14.208" /></g><g
           transform="translate(335.7832,50.0874)"
           id="g194"><path
             id="path196"
             style="fill:#717275;fill-opacity:1;fill-rule:nonzero;stroke:none"
             d="M 0,0 H 4.105 V -2.884 L 4.18,-2.965 c 1.289,2.171 3.535,3.501 6.114,3.501 4.254,0 6.955,-2.28 6.955,-6.69 v -13.483 h -4.336 v 12.343 c -0.075,3.08 -1.289,4.41 -3.834,4.41 -2.884,0 -4.75,-2.28 -4.75,-5.17 V -19.637 H 0 Z" /></g><g
           transform="translate(370.314,41.9971)"
           id="g198"><path
             id="path200"
             style="fill:#717275;fill-opacity:1;fill-rule:nonzero;stroke:none"
             d="m 0,0 c -0.149,2.734 -2.015,5.205 -4.94,5.205 -2.999,0 -5.048,-2.28 -5.164,-5.205 z m -10.104,-2.85 c 0,-3.074 1.67,-5.808 5.279,-5.808 2.512,0 4.025,1.099 4.791,3.263 h 4.099 c -0.95,-4.288 -4.594,-6.683 -8.89,-6.683 -6.154,0 -9.608,4.288 -9.608,10.327 0,5.591 3.644,10.376 9.493,10.376 6.195,0 9.996,-5.585 9.269,-11.475 z" /></g><g
           transform="translate(385.6958,57.5728)"
           id="g202"><path
             id="path204"
             style="fill:#717275;fill-opacity:1;fill-rule:nonzero;stroke:none"
             d="m 0,0 h 4.824 l 4.9,-20.744 H 9.798 L 15.274,0 h 4.858 l 5.32,-20.744 h 0.075 L 30.582,0 h 4.825 L 27.922,-27.122 H 23.098 L 17.669,-6.385 H 17.588 L 12.044,-27.122 H 7.138 Z" /></g><g
           transform="translate(435.9146,40.2881)"
           id="g206"><path
             id="path208"
             style="fill:#717275;fill-opacity:1;fill-rule:nonzero;stroke:none"
             d="m 0,0 c 0,3.379 -1.71,6.914 -5.584,6.914 -3.875,0 -5.585,-3.535 -5.585,-6.914 0,-3.42 1.71,-6.956 5.585,-6.956 C -1.71,-6.956 0,-3.42 0,0 m -15.498,0 c 0,6.005 3.61,10.334 9.914,10.334 6.31,0 9.913,-4.329 9.913,-10.334 0,-6.04 -3.603,-10.369 -9.913,-10.369 -6.304,0 -9.914,4.329 -9.914,10.369" /></g><g
           transform="translate(443.0952,50.0874)"
           id="g210"><path
             id="path212"
             style="fill:#717275;fill-opacity:1;fill-rule:nonzero;stroke:none"
             d="m 0,0 h 4.064 v -3.8 h 0.075 c 0.495,2.09 3.081,4.336 5.74,4.336 0.984,0 1.249,-0.081 1.629,-0.115 v -4.18 c -0.604,0.074 -1.256,0.19 -1.859,0.19 -2.965,0 -5.32,-2.395 -5.32,-6.725 v -9.343 H 0 Z" /></g><path
           id="path214"
           style="fill:#717275;fill-opacity:1;fill-rule:nonzero;stroke:none"
           d="m 456.583,57.571 h 4.329 V 30.449 h -4.329 z" /><g
           transform="translate(473.6733,33.3354)"
           id="g216"><path
             id="path218"
             style="fill:#717275;fill-opacity:1;fill-rule:nonzero;stroke:none"
             d="m 0,0 c 3.875,0 5.51,3.535 5.51,6.955 0,4.329 -2.09,6.908 -5.435,6.908 -4.065,0 -5.51,-3.604 -5.51,-7.139 C -5.435,3.345 -3.759,0 0,0 M 9.689,-2.884 H 5.584 v 2.653 H 5.51 C 4.37,-2.47 1.9,-3.42 -0.57,-3.42 c -6.195,0 -9.195,4.6 -9.195,10.483 0,7.105 4.221,10.22 8.509,10.22 2.47,0 5.205,-0.91 6.535,-3.075 h 0.075 v 10.03 h 4.335 z" /></g><path
           id="path220"
           style="fill:#717275;fill-opacity:1;fill-rule:nonzero;stroke:none"
           d="m 489.174,35.58 h 5.279 v -5.13 h -5.279 z" /><g
           transform="translate(517.6211,41.0864)"
           id="g222"><path
             id="path224"
             style="fill:#717275;fill-opacity:1;fill-rule:nonzero;stroke:none"
             d="m 0,0 -10.178,16.489 h 5.509 l 7.18,-12.16 7.063,12.16 h 5.32 L 4.75,0 V -10.64 H 0 Z" /></g><g
           transform="translate(543.832,40.2881)"
           id="g226"><path
             id="path228"
             style="fill:#717275;fill-opacity:1;fill-rule:nonzero;stroke:none"
             d="m 0,0 c 0,3.379 -1.71,6.914 -5.584,6.914 -3.875,0 -5.585,-3.535 -5.585,-6.914 0,-3.42 1.71,-6.956 5.585,-6.956 C -1.71,-6.956 0,-3.42 0,0 m -15.499,0 c 0,6.005 3.611,10.334 9.915,10.334 6.31,0 9.913,-4.329 9.913,-10.334 0,-6.04 -3.603,-10.369 -9.913,-10.369 -6.304,0 -9.915,4.329 -9.915,10.369" /></g><g
           transform="translate(568.2573,30.4487)"
           id="g230"><path
             id="path232"
             style="fill:#717275;fill-opacity:1;fill-rule:nonzero;stroke:none"
             d="M 0,0 H -4.255 V 2.734 H -4.33 c -1.065,-1.974 -3.42,-3.263 -5.584,-3.263 -5.13,0 -7.336,2.578 -7.336,7.708 v 12.458 h 4.337 V 7.6 c 0,-3.461 1.404,-4.716 3.759,-4.716 3.61,0 4.824,2.321 4.824,5.361 V 19.637 H 0 Z" /></g><g
           transform="translate(572.8154,50.0874)"
           id="g234"><path
             id="path236"
             style="fill:#717275;fill-opacity:1;fill-rule:nonzero;stroke:none"
             d="m 0,0 h 4.064 v -3.8 h 0.075 c 0.495,2.09 3.08,4.336 5.74,4.336 0.984,0 1.249,-0.081 1.629,-0.115 v -4.18 c -0.604,0.074 -1.255,0.19 -1.859,0.19 -2.965,0 -5.32,-2.395 -5.32,-6.725 v -9.343 H 0 Z" /></g><g
           transform="translate(589.4517,36.7559)"
           id="g238"><path
             id="path240"
             style="fill:#717275;fill-opacity:1;fill-rule:nonzero;stroke:none"
             d="m 0,0 c 0.23,-2.504 2.13,-3.42 4.444,-3.42 1.636,0 4.478,0.339 4.37,2.586 -0.115,2.272 -3.271,2.544 -6.419,3.263 -3.189,0.686 -6.304,1.825 -6.304,5.816 0,4.288 4.635,5.618 8.197,5.618 4.031,0 7.674,-1.669 8.211,-6.039 H 7.979 C 7.6,9.873 5.89,10.443 3.989,10.443 2.734,10.443 0.42,10.145 0.42,8.435 0.42,6.304 3.61,5.999 6.799,5.279 9.954,4.56 13.143,3.42 13.143,-0.455 13.143,-5.13 8.434,-6.84 4.37,-6.84 c -4.94,0 -8.625,2.206 -8.699,6.84 z" /></g><path
           id="path242"
           style="fill:#717275;fill-opacity:1;fill-rule:nonzero;stroke:none"
           d="m 606.244,35.58 h 5.279 v -5.13 h -5.279 z" /><g
           transform="translate(74.4727,216.6382)"
           id="g244"><path
             id="path246"
             style="fill:#ffffff;fill-opacity:1;fill-rule:nonzero;stroke:none"
             d="m 0,0 15.871,-0.088 c 0,0 2.382,-0.278 2.748,-1.839 0,0 1.473,2.11 3.305,1.927 l 15.416,-0.088 1.466,-20.737 -40.001,-0.271 z" /></g><g
           transform="translate(39.3589,192.1807)"
           id="g248"><path
             id="path250"
             style="fill:#98002e;fill-opacity:1;fill-rule:nonzero;stroke:none"
             d="m 0,0 h 107.944 c 0,0 12.92,-87.282 -53.972,-108.263 C -12.18,-88.022 0,0 0,0" /></g><g
           transform="translate(142.7568,158.4102)"
           id="g252"><path
             id="path254"
             style="fill:#ffffff;fill-opacity:1;fill-rule:nonzero;stroke:none"
             d="m 0,0 c -5.721,1.364 -18.437,0.36 -29.313,-5.578 -10.43,-5.699 -19.469,-5.876 -20.194,-5.883 -0.72,0.007 -9.765,0.184 -20.194,5.883 C -80.572,0.36 -93.288,1.364 -99.015,0 c 0,0 2.111,-53.137 49.446,-70.413 0,-0.027 0.123,-0.027 0.123,0 C -2.104,-53.137 0,0 0,0" /></g><g
           transform="translate(110.0493,105.6494)"
           id="g256"><path
             id="path258"
             style="fill:#98002e;fill-opacity:1;fill-rule:nonzero;stroke:none"
             d="m 0,0 c -5.3,0.434 -3.821,-4.424 -3.821,-4.424 -9.052,1.33 -11.643,-4.119 -12.241,-5.89 v -2.016 h -1.31 v 2.314 c -0.78,2.022 -3.555,6.854 -12.132,5.592 0,0 1.48,4.858 -3.82,4.424 0,0 3.169,2.999 -1.697,5.903 0,0 4.262,1.038 1.364,5.13 0,0 2.681,0.333 3.882,3.664 0,0 1.526,-2.13 3.935,-0.108 0,0 -0.441,-2.619 2.511,-3.827 0,0 -4.098,-0.543 -2.13,-4.207 -1.202,-0.489 -2.24,-3.99 1.417,-4.54 0,0 -2.13,-2.89 2.192,-5.015 2.735,-1.356 3.95,-2.598 4.478,-3.324 v 5.333 c -2.883,0.414 -5.102,2.864 -5.102,5.856 0,3.284 2.66,5.937 5.937,5.937 3.285,0 5.938,-2.653 5.938,-5.937 0,-3.121 -2.409,-5.645 -5.463,-5.889 v -5.47 c 0.448,0.699 1.615,2.015 4.587,3.494 4.323,2.125 2.185,5.015 2.185,5.015 3.665,0.55 2.626,4.051 1.425,4.54 1.968,3.664 -2.131,4.207 -2.131,4.207 2.946,1.208 2.511,3.827 2.511,3.827 2.402,-2.022 3.936,0.108 3.936,0.108 1.201,-3.331 3.881,-3.664 3.881,-3.664 C -2.565,6.941 1.696,5.903 1.696,5.903 -3.169,2.999 0,0 0,0" /></g><path
           id="path260"
           style="fill:#98002e;fill-opacity:1;fill-rule:nonzero;stroke:none"
           d="m 93.889,117.562 h -0.706 v 9.479 h 0.706 z" /><g
           transform="translate(94.7964,117.4419)"
           id="g262"><path
             id="path264"
             style="fill:#98002e;fill-opacity:1;fill-rule:nonzero;stroke:none"
             d="M 0,0 -0.699,0.109 0.726,9.479 1.425,9.371 Z" /></g><g
           transform="translate(95.7827,117.1748)"
           id="g266"><path
             id="path268"
             style="fill:#98002e;fill-opacity:1;fill-rule:nonzero;stroke:none"
             d="M 0,0 -0.672,0.204 2.056,9.282 2.728,9.079 Z" /></g><g
           transform="translate(96.7407,116.8237)"
           id="g270"><path
             id="path272"
             style="fill:#98002e;fill-opacity:1;fill-rule:nonzero;stroke:none"
             d="M 0,0 -0.638,0.299 3.386,8.882 4.017,8.584 Z" /></g><g
           transform="translate(92.2061,117.4419)"
           id="g274"><path
             id="path276"
             style="fill:#98002e;fill-opacity:1;fill-rule:nonzero;stroke:none"
             d="M 0,0 0.699,0.109 -0.727,9.479 -1.425,9.371 Z" /></g><g
           transform="translate(91.2178,117.1748)"
           id="g278"><path
             id="path280"
             style="fill:#98002e;fill-opacity:1;fill-rule:nonzero;stroke:none"
             d="M 0,0 0.679,0.204 -2.056,9.282 -2.728,9.079 Z" /></g><g
           transform="translate(90.2617,116.8237)"
           id="g282"><path
             id="path284"
             style="fill:#98002e;fill-opacity:1;fill-rule:nonzero;stroke:none"
             d="M 0,0 0.638,0.299 -3.386,8.882 -4.017,8.584 Z" /></g><g
           transform="translate(127.3745,128.542)"
           id="g286"><path
             id="path288"
             style="fill:#98002e;fill-opacity:1;fill-rule:nonzero;stroke:none"
             d="m 0,0 c 0,0 0.461,-1.988 -1.038,-1.072 -1.5,0.916 -6.453,3.521 -9.724,3.277 -3.277,0.244 -8.231,-2.361 -9.724,-3.277 C -21.985,-1.988 -21.524,0 -21.524,0 c 1.615,10.185 -4.071,14.311 -4.071,14.311 0,0 3.366,0.549 5.564,-1.832 0,0 0.305,1.526 1.228,1.743 0,0 -0.556,-5.815 2.809,-4.343 3.366,1.466 -0.21,6.386 -0.977,6.881 0,0 2.504,0.516 4.282,-0.767 0,0 1.16,3.454 1.927,3.542 v 0.007 -0.007 c 0.76,-0.088 1.927,-3.542 1.927,-3.542 1.771,1.283 4.282,0.767 4.282,0.767 -0.767,-0.495 -4.343,-5.415 -0.984,-6.881 3.366,-1.472 2.816,4.343 2.816,4.343 0.916,-0.217 1.221,-1.743 1.221,-1.743 2.206,2.381 5.564,1.832 5.564,1.832 0,0 -5.686,-4.126 -4.064,-14.311" /></g><g
           transform="translate(81.873,128.542)"
           id="g290"><path
             id="path292"
             style="fill:#98002e;fill-opacity:1;fill-rule:nonzero;stroke:none"
             d="m 0,0 c 0,0 0.461,-1.988 -1.039,-1.072 -1.499,0.916 -6.453,3.521 -9.723,3.277 -3.271,0.244 -8.224,-2.361 -9.724,-3.277 C -21.985,-1.988 -21.524,0 -21.524,0 c 1.622,10.185 -4.071,14.311 -4.071,14.311 0,0 3.366,0.549 5.564,-1.832 0,0 0.305,1.526 1.228,1.743 0,0 -0.556,-5.815 2.809,-4.343 3.366,1.466 -0.217,6.386 -0.977,6.881 0,0 2.511,0.516 4.282,-0.767 0,0 1.16,3.454 1.927,3.542 v 0.007 -0.007 c 0.766,-0.088 1.927,-3.542 1.927,-3.542 1.771,1.283 4.282,0.767 4.282,0.767 -0.767,-0.495 -4.343,-5.415 -0.977,-6.881 3.359,-1.472 2.809,4.343 2.809,4.343 0.916,-0.217 1.221,-1.743 1.221,-1.743 2.205,2.381 5.571,1.832 5.571,1.832 0,0 -5.693,-4.126 -4.071,-14.311" /></g><g
           transform="translate(93.8433,160.9658)"
           id="g294"><path
             id="path296"
             style="fill:#ffffff;fill-opacity:1;fill-rule:nonzero;stroke:none"
             d="M 0,0 -0.57,-3.569 -1.133,0 h -0.896 l 1.452,1.242 h 0.014 L 0.896,0 Z" /></g><g
           transform="translate(98.272,159.4351)"
           id="g298"><path
             id="path300"
             style="fill:#ffffff;fill-opacity:1;fill-rule:nonzero;stroke:none"
             d="m 0,0 -2.897,-2.158 h -0.007 0.007 -0.007 l 0.007,0.007 2.089,2.944 -0.644,0.625 1.907,-0.129 0.013,-0.014 0.177,-1.906 z" /></g><g
           transform="translate(87.4297,158.8066)"
           id="g302"><path
             id="path304"
             style="fill:#ffffff;fill-opacity:1;fill-rule:nonzero;stroke:none"
             d="M 0,0 0.176,1.907 0.183,1.914 2.097,2.049 1.452,1.418 3.542,-1.527 0.645,0.631 Z" /></g><g
           transform="translate(100.5737,163.4087)"
           id="g306"><path
             id="path308"
             style="fill:#ffffff;fill-opacity:1;fill-rule:nonzero;stroke:none"
             d="m 0,0 c -0.57,0 -1.113,0.108 -1.622,0.312 -0.515,0.21 -0.97,0.529 -1.357,0.95 -0.38,0.427 -0.692,0.97 -0.916,1.615 -0.217,0.644 -0.326,1.418 -0.326,2.293 v 0.197 h 1.616 V 5.17 c 0,-0.563 0.074,-1.058 0.223,-1.465 0.156,-0.4 0.353,-0.74 0.59,-0.998 C -1.554,2.456 -1.269,2.259 -0.957,2.144 -0.373,1.92 0.244,1.9 0.869,2.069 1.14,2.144 1.384,2.266 1.602,2.436 1.812,2.612 1.981,2.85 2.117,3.148 2.253,3.454 2.321,3.854 2.321,4.343 2.321,4.791 2.239,5.164 2.083,5.435 1.92,5.707 1.696,5.937 1.432,6.113 1.146,6.297 0.828,6.446 0.475,6.555 c -0.373,0.122 -0.753,0.244 -1.14,0.366 -0.394,0.129 -0.787,0.278 -1.16,0.448 -0.394,0.17 -0.747,0.4 -1.059,0.685 -0.312,0.292 -0.57,0.672 -0.76,1.127 -0.183,0.447 -0.278,1.018 -0.278,1.689 0,0.733 0.109,1.378 0.312,1.921 0.211,0.542 0.495,1.004 0.841,1.356 0.353,0.353 0.754,0.625 1.202,0.801 0.943,0.367 1.988,0.333 2.843,-0.013 0.454,-0.184 0.855,-0.475 1.201,-0.862 0.339,-0.393 0.61,-0.882 0.8,-1.466 0.19,-0.583 0.299,-1.275 0.32,-2.076 L 3.603,10.334 H 1.995 l -0.014,0.184 c -0.074,0.963 -0.312,1.669 -0.705,2.089 -0.401,0.421 -0.896,0.624 -1.52,0.624 -0.252,0 -0.509,-0.033 -0.754,-0.108 -0.231,-0.075 -0.447,-0.19 -0.624,-0.353 -0.183,-0.169 -0.332,-0.394 -0.441,-0.671 -0.115,-0.292 -0.176,-0.659 -0.176,-1.093 0,-0.394 0.081,-0.713 0.237,-0.957 C -1.839,9.805 -1.628,9.601 -1.357,9.445 -1.072,9.289 -0.753,9.147 -0.394,9.038 -0.021,8.93 0.359,8.801 0.753,8.672 1.14,8.536 1.534,8.38 1.914,8.197 2.307,8.007 2.66,7.749 2.972,7.43 3.284,7.111 3.542,6.704 3.725,6.215 3.916,5.733 4.003,5.123 4.003,4.404 4.003,3.624 3.881,2.945 3.644,2.388 3.399,1.832 3.081,1.371 2.701,1.018 2.314,0.658 1.879,0.4 1.404,0.237 0.937,0.082 0.468,0 0,0 m -5.408,0.319 h -1.683 v 6.487 h -4.75 V 0.319 h -1.682 v 14.555 h 1.682 V 8.78 h 4.75 v 6.094 h 1.683 z m -9.914,0 h -1.689 v 14.555 h 1.689 z" /></g><g
           transform="translate(77.6162,171.0557)"
           id="g310"><path
             id="path312"
             style="fill:#ffffff;fill-opacity:1;fill-rule:nonzero;stroke:none"
             d="m 0,0 c -0.4,-0.231 -0.658,-0.699 -0.658,-1.235 0,-0.529 0.258,-0.997 0.658,-1.228 v -2.246 l -1.404,1.411 c -0.53,0.523 -0.822,1.221 -0.822,1.975 0,0.746 0.292,1.445 0.822,1.968 L 0,2.056 Z M 29.083,9.29 V 7.335 l -4.743,4.75 h 1.947 c 1.547,0 2.796,-1.255 2.796,-2.795 m 0,-5.056 V -6.887 l -7.919,-7.919 H 10.097 L 2.192,-6.901 V 4.254 l 7.837,7.831 h 11.21 z m -16.862,10.043 1.431,1.438 c 0.53,0.523 1.235,0.814 1.975,0.814 0.747,0 1.452,-0.291 1.975,-0.814 l 1.439,-1.438 h -2.138 c -0.204,0.454 -0.713,0.76 -1.289,0.76 -0.577,0 -1.086,-0.306 -1.29,-0.76 z M 2.192,7.355 V 9.29 c 0,1.54 1.255,2.795 2.795,2.795 H 6.921 Z M 6.996,-14.806 H 4.987 c -1.54,0 -2.795,1.248 -2.795,2.789 v 2.008 z m 11.97,-2.198 -1.364,-1.364 c -0.523,-0.523 -1.228,-0.815 -1.975,-0.815 -0.74,0 -1.445,0.292 -1.975,0.815 l -1.363,1.364 h 2.198 c 0.265,-0.312 0.679,-0.503 1.127,-0.503 0.454,0 0.861,0.191 1.126,0.503 z m 10.117,7.016 v -2.029 c 0,-1.541 -1.249,-2.789 -2.796,-2.789 h -2.022 z m 2.191,7.545 c 0.373,0.245 0.611,0.706 0.611,1.208 0,0.509 -0.238,0.964 -0.611,1.208 v 2.069 l 1.398,-1.397 c 1.086,-1.086 1.086,-2.857 0,-3.95 l -1.398,-1.391 z m 3.407,4.106 c 0.122,0.447 -0.027,0.963 -0.407,1.343 -0.353,0.353 -0.848,0.515 -1.283,0.421 l -1.717,1.717 v 2.422 c 0.373,0.244 0.611,0.705 0.611,1.208 0,0.536 -0.258,1.011 -0.665,1.235 -0.332,2.266 -2.178,4.024 -4.458,4.241 -0.217,0.434 -0.705,0.712 -1.262,0.712 -0.543,0 -1.024,-0.272 -1.249,-0.685 h -2.11 l -1.771,1.771 c 0.095,0.434 -0.061,0.923 -0.421,1.282 -0.366,0.367 -0.902,0.529 -1.343,0.407 -0.855,0.631 -1.907,0.977 -2.979,0.977 -1.153,0 -2.28,-0.4 -3.169,-1.133 C 12.01,17.724 11.44,17.575 11.061,17.195 10.674,16.808 10.524,16.271 10.66,15.824 L 9.113,14.277 H 6.928 C 6.704,14.69 6.223,14.962 5.68,14.962 5.123,14.962 4.628,14.677 4.411,14.243 2.212,13.985 0.414,12.255 0.068,10.063 -0.394,9.866 -0.706,9.351 -0.706,8.774 -0.706,8.224 -0.427,7.735 0,7.518 V 5.164 L -1.588,3.569 C -2.029,3.705 -2.585,3.549 -2.958,3.176 -3.352,2.782 -3.501,2.232 -3.338,1.771 -4.716,0.034 -4.764,-2.463 -3.46,-4.254 c -0.184,-0.469 -0.041,-1.052 0.366,-1.459 0.38,-0.38 0.943,-0.537 1.391,-0.394 L 0,-7.81 v -2.416 c -0.427,-0.224 -0.706,-0.712 -0.706,-1.255 0,-0.577 0.312,-1.093 0.767,-1.29 0.339,-2.205 2.151,-3.942 4.363,-4.193 0.218,-0.434 0.706,-0.712 1.256,-0.712 0.529,0 1.01,0.271 1.241,0.672 h 2.267 l 1.655,-1.649 c -0.149,-0.455 0,-0.998 0.387,-1.385 0.4,-0.4 0.991,-0.549 1.452,-0.373 0.848,-0.617 1.893,-0.964 2.952,-0.964 1.126,0 2.225,0.387 3.101,1.086 0.448,-0.149 1.004,0.007 1.391,0.387 0.373,0.373 0.522,0.902 0.4,1.35 l 1.547,1.548 h 2.185 c 0.231,-0.401 0.713,-0.672 1.242,-0.672 0.543,0 1.031,0.278 1.255,0.698 2.287,0.218 4.146,1.982 4.465,4.255 0.407,0.238 0.665,0.706 0.665,1.242 0,0.502 -0.238,0.963 -0.611,1.208 v 2.477 l 1.514,1.506 c 0.102,-0.027 0.21,-0.041 0.325,-0.041 0.367,0 0.74,0.163 1.025,0.441 0.387,0.387 0.536,0.93 0.394,1.385 1.466,1.771 1.527,4.329 0.149,6.168" /></g><g
           transform="translate(90.1309,215.8745)"
           id="g314"><path
             id="path316"
             style="fill:#98002e;fill-opacity:1;fill-rule:nonzero;stroke:none"
             d="M 0,0 C 2.151,0 2.416,-1.71 2.443,-2.049 L 2.517,-12.438 2.49,-16.659 c -1.445,1.9 -3.243,2.111 -3.963,2.111 -0.094,0 -0.162,-0.007 -0.203,-0.007 H -15.647 L -14.548,0 Z m -1.398,-16.007 c 0.625,0 2.701,-0.272 3.773,-3.685 l -18.402,0.061 0.271,3.61 h 14.114 l 0.081,0.007 c 0.02,0 0.075,0.007 0.163,0.007 M 4.051,-2.056 C 4.085,-1.71 4.343,0 6.5,0 h 14.549 l 1.092,-14.555 H 8.177 c -0.041,0 -0.116,0.007 -0.204,0.007 -0.726,0 -2.517,-0.211 -3.963,-2.111 l -0.027,4.221 z m 3.841,-13.951 c 0.094,0 0.149,-0.007 0.169,-0.007 l 14.189,-0.007 0.278,-3.61 -18.403,-0.061 c 1.066,3.413 3.149,3.685 3.767,3.685 M 22.413,1.384 22.406,1.465 H 6.5 C 4.723,1.465 3.759,0.638 3.25,-0.116 2.741,0.638 1.771,1.465 0,1.465 h -15.912 l -1.69,-22.466 -0.006,-0.096 20.065,-0.061 v -0.007 l 0.793,0.007 0.699,-0.007 20.058,0.068 h 0.102 z" /></g><g
           transform="translate(80.1221,211.1353)"
           id="g318"><path
             id="path320"
             style="fill:#98002e;fill-opacity:1;fill-rule:nonzero;stroke:none"
             d="M 0,0 -0.475,1.391 H -0.489 L -0.984,0 Z M -0.047,2.321 1.371,-1.466 H 0.502 l -0.285,0.848 h -1.411 l -0.299,-0.848 h -0.841 l 1.432,3.787 z" /></g><g
           transform="translate(84.0605,209.7007)"
           id="g322"><path
             id="path324"
             style="fill:#98002e;fill-opacity:1;fill-rule:nonzero;stroke:none"
             d="m 0,0 c -0.184,-0.075 -0.36,-0.115 -0.55,-0.115 -0.285,0 -0.543,0.054 -0.78,0.149 -0.231,0.102 -0.428,0.244 -0.584,0.421 -0.156,0.176 -0.278,0.387 -0.366,0.624 -0.082,0.237 -0.129,0.495 -0.129,0.767 0,0.285 0.047,0.55 0.129,0.787 0.088,0.244 0.21,0.454 0.366,0.638 0.156,0.176 0.353,0.319 0.584,0.42 0.237,0.102 0.495,0.157 0.78,0.157 0.197,0 0.387,-0.035 0.57,-0.089 C 0.204,3.698 0.366,3.617 0.509,3.501 0.658,3.393 0.78,3.25 0.875,3.081 0.97,2.918 1.031,2.728 1.052,2.511 H 0.251 C 0.204,2.721 0.108,2.884 -0.034,2.986 -0.17,3.094 -0.346,3.148 -0.55,3.148 -0.733,3.148 -0.889,3.108 -1.025,3.04 -1.154,2.965 -1.262,2.87 -1.344,2.749 -1.418,2.626 -1.479,2.484 -1.521,2.328 -1.554,2.178 -1.575,2.016 -1.575,1.846 c 0,-0.156 0.021,-0.312 0.054,-0.462 0.042,-0.149 0.103,-0.284 0.177,-0.407 0.082,-0.122 0.19,-0.217 0.319,-0.285 0.136,-0.074 0.292,-0.108 0.475,-0.108 0.279,0 0.489,0.067 0.645,0.203 0.149,0.143 0.237,0.346 0.258,0.611 H -0.482 V 2.016 H 1.106 V -0.027 H 0.577 L 0.488,0.4 C 0.346,0.21 0.183,0.075 0,0" /></g><g
           transform="translate(88.6719,213.4561)"
           id="g326"><path
             id="path328"
             style="fill:#98002e;fill-opacity:1;fill-rule:nonzero;stroke:none"
             d="m 0,0 v -0.699 h -2.001 v -0.815 h 1.838 V -2.158 H -2.001 V -3.081 H 0.041 V -3.787 H -2.83 V 0 Z" /></g><g
           transform="translate(78.4775,204.625)"
           id="g330"><path
             id="path332"
             style="fill:#98002e;fill-opacity:1;fill-rule:nonzero;stroke:none"
             d="M 0,0 C 0.074,0.095 0.128,0.21 0.169,0.353 0.21,0.496 0.23,0.665 0.23,0.869 0.23,1.031 0.217,1.194 0.176,1.351 0.142,1.506 0.081,1.642 0,1.764 -0.082,1.886 -0.19,1.988 -0.319,2.056 -0.448,2.131 -0.604,2.165 -0.794,2.165 -0.984,2.165 -1.14,2.131 -1.276,2.056 -1.405,1.988 -1.507,1.886 -1.588,1.764 -1.669,1.642 -1.73,1.506 -1.765,1.351 -1.805,1.194 -1.819,1.031 -1.819,0.869 -1.819,0.706 -1.805,0.557 -1.765,0.407 -1.73,0.258 -1.669,0.122 -1.588,0 c 0.081,-0.122 0.183,-0.217 0.312,-0.292 0.136,-0.067 0.292,-0.108 0.482,-0.108 0.061,0 0.122,0 0.19,0.006 0.068,0.007 0.115,0.021 0.142,0.048 l -0.352,0.325 0.386,0.415 z m 0.122,-0.875 c -0.251,-0.143 -0.557,-0.217 -0.916,-0.217 -0.292,0 -0.55,0.047 -0.781,0.149 -0.23,0.102 -0.427,0.237 -0.59,0.421 -0.156,0.176 -0.278,0.379 -0.359,0.617 -0.089,0.238 -0.129,0.495 -0.129,0.774 0,0.285 0.04,0.543 0.129,0.787 0.081,0.244 0.203,0.454 0.359,0.631 0.163,0.183 0.36,0.325 0.59,0.427 0.231,0.102 0.489,0.15 0.781,0.15 0.292,0 0.556,-0.048 0.787,-0.15 C 0.217,2.612 0.414,2.47 0.57,2.287 0.732,2.11 0.854,1.9 0.936,1.656 1.024,1.412 1.065,1.154 1.065,0.869 1.065,0.59 1.024,0.339 0.936,0.102 0.854,-0.136 0.732,-0.346 0.57,-0.522 l 0.475,-0.435 -0.387,-0.4 z" /></g><g
           transform="translate(82.8921,203.9067)"
           id="g334"><path
             id="path336"
             style="fill:#98002e;fill-opacity:1;fill-rule:nonzero;stroke:none"
             d="m 0,0 c -0.285,-0.251 -0.679,-0.374 -1.187,-0.374 -0.509,0 -0.91,0.123 -1.188,0.374 -0.285,0.244 -0.421,0.624 -0.421,1.14 v 2.354 h 0.828 V 1.14 c 0,-0.102 0.013,-0.204 0.027,-0.299 0.021,-0.102 0.054,-0.19 0.116,-0.264 0.054,-0.075 0.135,-0.136 0.23,-0.183 0.102,-0.048 0.238,-0.075 0.408,-0.075 0.298,0 0.501,0.068 0.617,0.197 0.115,0.135 0.17,0.345 0.17,0.624 V 3.494 H 0.427 V 1.14 C 0.427,0.631 0.285,0.251 0,0" /></g><g
           transform="translate(84.7593,205.0303)"
           id="g338"><path
             id="path340"
             style="fill:#98002e;fill-opacity:1;fill-rule:nonzero;stroke:none"
             d="m 0,0 c 0.041,-0.149 0.095,-0.285 0.176,-0.407 0.082,-0.115 0.191,-0.218 0.32,-0.285 0.129,-0.075 0.291,-0.109 0.474,-0.109 0.191,0 0.353,0.034 0.482,0.109 0.129,0.067 0.238,0.17 0.319,0.285 0.082,0.122 0.136,0.258 0.177,0.407 0.033,0.149 0.054,0.305 0.054,0.461 0,0.17 -0.021,0.326 -0.054,0.482 C 1.907,1.099 1.853,1.242 1.771,1.364 1.69,1.486 1.581,1.581 1.452,1.656 1.323,1.724 1.161,1.764 0.97,1.764 0.787,1.764 0.625,1.724 0.496,1.656 0.367,1.581 0.258,1.486 0.176,1.364 0.095,1.242 0.041,1.099 0,0.943 -0.034,0.787 -0.054,0.631 -0.054,0.461 -0.054,0.305 -0.034,0.149 0,0 m -0.76,1.249 c 0.088,0.244 0.21,0.454 0.366,0.637 0.157,0.177 0.353,0.319 0.584,0.421 0.231,0.102 0.496,0.156 0.78,0.156 0.299,0 0.557,-0.054 0.787,-0.156 C 1.988,2.205 2.185,2.063 2.341,1.886 2.497,1.703 2.626,1.493 2.708,1.249 2.789,1.011 2.836,0.746 2.836,0.461 2.836,0.19 2.789,-0.068 2.708,-0.306 2.626,-0.543 2.497,-0.753 2.341,-0.93 2.185,-1.106 1.988,-1.242 1.757,-1.344 1.527,-1.445 1.269,-1.5 0.97,-1.5 c -0.284,0 -0.549,0.055 -0.78,0.156 -0.231,0.102 -0.427,0.238 -0.584,0.414 -0.156,0.177 -0.278,0.387 -0.366,0.624 -0.081,0.238 -0.129,0.496 -0.129,0.767 0,0.285 0.048,0.55 0.129,0.788" /></g><g
           transform="translate(89.7358,204.3184)"
           id="g342"><path
             id="path344"
             style="fill:#98002e;fill-opacity:1;fill-rule:nonzero;stroke:none"
             d="m 0,0 c 0.122,0 0.237,0.021 0.353,0.061 0.108,0.034 0.21,0.102 0.298,0.19 0.089,0.088 0.157,0.21 0.211,0.353 0.054,0.143 0.081,0.319 0.081,0.529 0,0.19 -0.02,0.367 -0.054,0.516 C 0.848,1.805 0.787,1.934 0.706,2.042 0.618,2.151 0.509,2.239 0.367,2.3 0.231,2.354 0.054,2.382 -0.149,2.382 H -0.74 V 0 Z M 0.054,3.081 C 0.298,3.081 0.529,3.047 0.74,2.965 0.95,2.891 1.133,2.775 1.283,2.612 1.438,2.463 1.561,2.267 1.642,2.036 1.73,1.798 1.778,1.527 1.778,1.215 1.778,0.937 1.737,0.686 1.669,0.448 1.595,0.217 1.493,0.014 1.344,-0.156 1.208,-0.326 1.024,-0.455 0.814,-0.556 0.597,-0.651 0.346,-0.699 0.054,-0.699 h -1.628 v 3.78 z" /></g><g
           transform="translate(100.3232,205.9946)"
           id="g346"><path
             id="path348"
             style="fill:#98002e;fill-opacity:1;fill-rule:nonzero;stroke:none"
             d="m 0,0 v -0.712 h -1.33 v -1.33 h -0.712 v 1.33 h -1.33 V 0 h 1.33 v 1.33 h 0.712 l 0,-1.33 z" /></g><g
           transform="translate(104.3311,205.9946)"
           id="g350"><path
             id="path352"
             style="fill:#98002e;fill-opacity:1;fill-rule:nonzero;stroke:none"
             d="m 0,0 v -0.712 h -1.33 v -1.33 h -0.713 v 1.33 h -1.33 V 0 h 1.33 V 1.33 H -1.33 V 0 Z" /></g><g
           transform="translate(108.3398,205.9946)"
           id="g354"><path
             id="path356"
             style="fill:#98002e;fill-opacity:1;fill-rule:nonzero;stroke:none"
             d="m 0,0 v -0.712 h -1.33 v -1.33 h -0.712 v 1.33 H -3.373 V 0 h 1.331 v 1.33 h 0.712 l 0,-1.33 z" /></g><g
           transform="translate(98.8379,210.8589)"
           id="g358"><path
             id="path360"
             style="fill:#98002e;fill-opacity:1;fill-rule:nonzero;stroke:none"
             d="M 0,0 -0.475,1.391 H -0.488 L -0.977,0 Z m -0.047,2.321 1.418,-3.78 H 0.502 l -0.285,0.842 h -1.411 l -0.299,-0.842 h -0.841 l 1.432,3.78 z" /></g><g
           transform="translate(102.7749,209.4263)"
           id="g362"><path
             id="path364"
             style="fill:#98002e;fill-opacity:1;fill-rule:nonzero;stroke:none"
             d="m 0,0 c -0.176,-0.075 -0.359,-0.116 -0.543,-0.116 -0.291,0 -0.549,0.055 -0.78,0.15 -0.238,0.101 -0.427,0.244 -0.591,0.421 -0.155,0.176 -0.278,0.379 -0.366,0.624 -0.081,0.237 -0.122,0.495 -0.122,0.766 0,0.285 0.041,0.55 0.122,0.787 0.088,0.245 0.211,0.455 0.366,0.632 0.164,0.183 0.353,0.325 0.591,0.427 0.231,0.102 0.489,0.156 0.78,0.156 0.19,0 0.38,-0.034 0.564,-0.088 C 0.204,3.698 0.367,3.616 0.516,3.501 0.658,3.386 0.78,3.25 0.875,3.08 0.97,2.917 1.031,2.728 1.052,2.51 H 0.258 C 0.204,2.721 0.109,2.877 -0.034,2.985 -0.169,3.094 -0.346,3.148 -0.543,3.148 -0.733,3.148 -0.889,3.107 -1.024,3.04 -1.153,2.965 -1.262,2.87 -1.337,2.748 -1.425,2.626 -1.479,2.483 -1.52,2.327 -1.554,2.171 -1.574,2.015 -1.574,1.845 c 0,-0.156 0.02,-0.312 0.054,-0.461 0.041,-0.149 0.095,-0.285 0.183,-0.407 0.075,-0.123 0.184,-0.217 0.313,-0.292 0.135,-0.068 0.291,-0.108 0.481,-0.108 0.272,0 0.489,0.074 0.638,0.21 0.149,0.142 0.238,0.346 0.258,0.61 H -0.482 V 2.015 H 1.106 V -0.027 H 0.577 L 0.496,0.4 C 0.346,0.21 0.183,0.074 0,0" /></g><path
           id="path366"
           style="fill:#98002e;fill-opacity:1;fill-rule:nonzero;stroke:none"
           d="m 105.391,209.397 h -0.835 v 3.787 h 0.835 z" /><g
           transform="translate(106.7568,210.3296)"
           id="g368"><path
             id="path370"
             style="fill:#98002e;fill-opacity:1;fill-rule:nonzero;stroke:none"
             d="m 0,0 c 0.047,-0.088 0.108,-0.163 0.183,-0.217 0.075,-0.054 0.163,-0.095 0.265,-0.116 0.101,-0.026 0.21,-0.047 0.319,-0.047 0.074,0 0.156,0.014 0.237,0.021 0.088,0.013 0.163,0.04 0.238,0.074 0.074,0.034 0.135,0.081 0.19,0.142 C 1.479,-0.075 1.506,0 1.506,0.095 1.506,0.197 1.472,0.278 1.404,0.346 1.343,0.407 1.255,0.461 1.146,0.502 1.045,0.55 0.923,0.583 0.787,0.618 0.651,0.645 0.516,0.686 0.38,0.719 0.237,0.76 0.102,0.801 -0.034,0.848 -0.17,0.903 -0.285,0.97 -0.394,1.052 c -0.108,0.081 -0.19,0.183 -0.257,0.305 -0.061,0.122 -0.096,0.265 -0.096,0.441 0,0.197 0.041,0.36 0.122,0.502 0.082,0.143 0.19,0.265 0.326,0.36 0.136,0.095 0.285,0.17 0.455,0.21 0.17,0.048 0.339,0.075 0.509,0.075 0.197,0 0.387,-0.027 0.57,-0.068 C 1.418,2.83 1.581,2.762 1.724,2.66 1.859,2.565 1.975,2.436 2.056,2.28 2.137,2.131 2.178,1.941 2.178,1.724 H 1.377 C 1.371,1.832 1.343,1.927 1.303,2.002 1.262,2.077 1.208,2.137 1.14,2.178 1.072,2.219 0.997,2.253 0.909,2.267 0.828,2.287 0.732,2.293 0.631,2.293 0.563,2.293 0.495,2.287 0.427,2.273 0.359,2.26 0.298,2.232 0.244,2.199 0.19,2.165 0.143,2.117 0.108,2.07 0.075,2.016 0.054,1.948 0.054,1.866 0.054,1.792 0.068,1.73 0.102,1.69 0.129,1.642 0.183,1.595 0.264,1.561 0.353,1.52 0.461,1.479 0.611,1.438 0.76,1.405 0.95,1.35 1.187,1.296 1.255,1.283 1.35,1.255 1.479,1.215 1.601,1.181 1.73,1.12 1.852,1.038 1.975,0.957 2.083,0.848 2.171,0.712 2.266,0.577 2.307,0.407 2.307,0.19 2.307,0.021 2.273,-0.143 2.212,-0.292 2.144,-0.441 2.042,-0.57 1.907,-0.672 1.778,-0.78 1.615,-0.869 1.418,-0.93 1.221,-0.991 0.991,-1.018 0.732,-1.018 c -0.21,0 -0.406,0.027 -0.603,0.075 -0.197,0.054 -0.374,0.135 -0.523,0.244 -0.149,0.109 -0.264,0.251 -0.353,0.421 -0.088,0.17 -0.135,0.366 -0.128,0.604 h 0.807 C -0.068,0.197 -0.048,0.088 0,0" /></g></g></g></g></svg>